<?xml version="1.0" encoding="UTF-8" standalone="no"?>
<!-- Created with Inkscape (http://www.inkscape.org/) -->

<svg
   xmlns:dc="http://purl.org/dc/elements/1.1/"
   xmlns:cc="http://creativecommons.org/ns#"
   xmlns:rdf="http://www.w3.org/1999/02/22-rdf-syntax-ns#"
   xmlns:svg="http://www.w3.org/2000/svg"
   xmlns="http://www.w3.org/2000/svg"
   xmlns:sodipodi="http://sodipodi.sourceforge.net/DTD/sodipodi-0.dtd"
   xmlns:inkscape="http://www.inkscape.org/namespaces/inkscape"
   width="180"
   height="180"
   id="svg2"
   version="1.1"
   inkscape:version="0.48.3.1 r9886"
   sodipodi:docname="vaberto_preto.svg"
   inkscape:export-filename="/home/diraol/devel/polignu/camaraws/radar_parlamentar/static/assets/votoaberto/vaberto_direita_preto.png"
   inkscape:export-xdpi="90"
   inkscape:export-ydpi="90">
  <defs
     id="defs4" />
  <sodipodi:namedview
     id="base"
     pagecolor="#ffffff"
     bordercolor="#666666"
     borderopacity="1.0"
     inkscape:pageopacity="0.0"
     inkscape:pageshadow="2"
     inkscape:zoom="2.3452375"
     inkscape:cx="93.856403"
     inkscape:cy="66.007089"
     inkscape:document-units="px"
     inkscape:current-layer="layer3"
     showgrid="false"
     inkscape:snap-bbox="true"
     inkscape:bbox-paths="true"
     inkscape:bbox-nodes="true"
     inkscape:snap-bbox-edge-midpoints="true"
     inkscape:snap-bbox-midpoints="true"
     showguides="true"
     inkscape:guide-bbox="true"
     inkscape:window-width="1280"
     inkscape:window-height="776"
     inkscape:window-x="0"
     inkscape:window-y="24"
     inkscape:window-maximized="1">
    <sodipodi:guide
       orientation="1,0"
       position="180,1000"
       id="guide3756" />
    <sodipodi:guide
       orientation="1,0"
       position="0,1000"
       id="guide3758" />
    <sodipodi:guide
       orientation="0,1"
       position="1000,0"
       id="guide3760" />
    <sodipodi:guide
       orientation="0,1"
       position="1000,180"
       id="guide3762" />
    <sodipodi:guide
       orientation="0.70710678,0.70710678"
       position="-0.43849999,180.4385"
       id="guide3764" />
    <sodipodi:guide
       orientation="0.70710678,0.70710678"
       position="69.5615,180.4385"
       id="guide3766" />
    <sodipodi:guide
       orientation="-0.70710678,0.70710678"
       position="180.4385,180.4385"
       id="guide3774" />
    <sodipodi:guide
       orientation="0.70710678,0.70710678"
       position="82.211055,137.78894"
       id="guide3776" />
  </sodipodi:namedview>
  <metadata
     id="metadata7">
    <rdf:RDF>
      <cc:Work
         rdf:about="">
        <dc:format>image/svg+xml</dc:format>
        <dc:type
           rdf:resource="http://purl.org/dc/dcmitype/StillImage" />
        <dc:title></dc:title>
      </cc:Work>
    </rdf:RDF>
  </metadata>
  <g
     inkscape:groupmode="layer"
     id="layer2"
     inkscape:label="fundo" />
  <g
     inkscape:label="Texto"
     inkscape:groupmode="layer"
     id="layer1"
     transform="translate(0,-872.36218)">
    <text
       xml:space="preserve"
       style="font-size:14px;font-style:normal;font-variant:normal;font-weight:normal;font-stretch:normal;line-height:125%;letter-spacing:0px;word-spacing:0px;fill:#000000;fill-opacity:1;stroke:none;font-family:DejaVu Sans;-inkscape-font-specification:DejaVu Sans"
       x="78.39196"
       y="852.46271"
       id="text3064"
       sodipodi:linespacing="125%"><tspan
         sodipodi:role="line"
         id="tspan3066"
         x="78.39196"
         y="852.46271">Fonte: Chewy</tspan></text>
    <text
       xml:space="preserve"
       style="font-size:14px;font-style:normal;font-variant:normal;font-weight:normal;font-stretch:normal;text-align:center;line-height:112.99999952000000292%;letter-spacing:0px;word-spacing:0px;text-anchor:middle;fill:#000000;fill-opacity:1;stroke:none;font-family:DejaVu Sans;-inkscape-font-specification:DejaVu Sans"
       x="194.2043"
       y="130.27509"
       id="text3013-2"
       sodipodi:linespacing="113%"
       transform="matrix(0.70710678,-0.70710678,0.70710678,0.70710678,0,872.36218)"><tspan
         sodipodi:role="line"
         id="tspan3015-4"
         x="194.93929"
         y="130.27509"
         style="font-size:20px;font-style:italic;font-variant:normal;font-weight:bold;font-stretch:normal;line-height:112.99999952%;letter-spacing:1.47000003px;fill:#000000;font-family:Chewy;-inkscape-font-specification:Chewy Bold Italic">Voto Aberto:</tspan><tspan
         sodipodi:role="line"
         x="194.93932"
         y="152.87506"
         id="tspan3017-8"
         style="font-size:20px;font-style:italic;font-variant:normal;font-weight:bold;font-stretch:normal;line-height:112.99999952%;letter-spacing:1.47000003px;fill:#000000;font-family:Chewy;-inkscape-font-specification:Chewy Bold Italic">Eu Apoio!</tspan></text>
  </g>
  <g
     inkscape:groupmode="layer"
     id="layer3"
     inkscape:label="texto_vetorizado">
    <g
       id="g3974"
       transform="matrix(0,1,-1,0,180.00002,4.9999998e-6)">
      <path
         sodipodi:nodetypes="ccccc"
         inkscape:connector-curvature="0"
         id="rect2985"
         d="m 0.5847,1051.7775 0,-69.54523 109.28538,-109.28538 69.54524,0 z"
         style="fill:#000000;fill-opacity:1;stroke:#ffffff;stroke-width:1.16935372;stroke-linecap:square;stroke-miterlimit:4;stroke-opacity:1;stroke-dasharray:none"
         transform="translate(0,-872.36218)" />
      <g
         id="text3013"
         style="font-size:14px;font-style:normal;font-variant:normal;font-weight:normal;font-stretch:normal;text-align:center;line-height:112.99999952%;letter-spacing:0px;word-spacing:0px;text-anchor:middle;fill:#ffffff;fill-opacity:1;stroke:none;font-family:DejaVu Sans;-inkscape-font-specification:DejaVu Sans"
         transform="matrix(0.70710678,-0.70710678,0.70710678,0.70710678,0,-872.36218)">
        <path
           id="path3935"
           style="font-size:20px;font-style:italic;font-weight:bold;line-height:112.99999952%;letter-spacing:1.47000003px;fill:#ffffff;font-family:Chewy;-inkscape-font-specification:Chewy Bold Italic"
           d="m -661.968,700.74664 c -0.0912,0.46877 -0.25391,0.99611 -0.48828,1.58203 -0.23438,0.57293 -0.50131,1.15887 -0.80078,1.75782 -0.28647,0.59896 -0.58595,1.1849 -0.89844,1.75781 -0.31251,0.5599 -0.59245,1.06771 -0.83984,1.52344 -0.16928,0.28646 -0.35808,0.64453 -0.56641,1.07422 -0.20834,0.41667 -0.44271,0.85937 -0.70312,1.32812 -0.2474,0.46875 -0.52084,0.9375 -0.82031,1.40625 -0.28647,0.46875 -0.58595,0.89193 -0.89844,1.26953 -0.29949,0.36459 -0.61199,0.66406 -0.9375,0.89844 -0.32553,0.23437 -0.65105,0.35156 -0.97656,0.35156 -0.27345,0 -0.51433,-0.1237 -0.72266,-0.37109 -0.20834,-0.2474 -0.39063,-0.5599 -0.54687,-0.9375 -0.14324,-0.39063 -0.26693,-0.82031 -0.3711,-1.28906 -0.10417,-0.48177 -0.19531,-0.95052 -0.27344,-1.40625 -0.0651,-0.45573 -0.11719,-0.87891 -0.15625,-1.26954 -0.026,-0.39062 -0.0456,-0.69009 -0.0586,-0.89843 -0.0521,-1.01562 -0.0977,-2.03776 -0.13672,-3.06641 -0.026,-1.04166 0.0651,-2.08332 0.27344,-3.125 0.0521,-0.2604 0.11718,-0.52733 0.19531,-0.80078 0.0911,-0.28645 0.20833,-0.54686 0.35156,-0.78125 0.15625,-0.23436 0.34505,-0.42316 0.56641,-0.56641 0.22135,-0.15623 0.5013,-0.23436 0.83984,-0.23437 0.28646,1e-5 0.51432,0.16277 0.6836,0.48828 0.18228,0.31251 0.319,0.72267 0.41015,1.23047 0.0911,0.50782 0.15625,1.07423 0.19532,1.69922 0.0391,0.62501 0.0716,1.2435 0.0977,1.85547 0.026,0.59896 0.0456,1.16537 0.0586,1.69921 0.026,0.52084 0.0781,0.93751 0.15625,1.25 0.1302,-0.26041 0.319,-0.63801 0.5664,-1.13281 0.24739,-0.5078 0.52734,-1.06119 0.83985,-1.66015 0.32551,-0.59895 0.67056,-1.21093 1.03515,-1.83594 0.3776,-0.63801 0.74869,-1.21093 1.11328,-1.71875 0.3776,-0.52082 0.74218,-0.944 1.09375,-1.26953 0.35156,-0.32551 0.67708,-0.48827 0.97657,-0.48828 0.22134,10e-6 0.39061,0.0521 0.50781,0.15625 0.11717,0.10418 0.1953,0.2409 0.23437,0.41015 0.0521,0.16929 0.0716,0.35158 0.0586,0.54688 -10e-6,0.19532 -0.0195,0.38412 -0.0586,0.5664"
           inkscape:connector-curvature="0" />
        <path
           id="path3937"
           style="font-size:20px;font-style:italic;font-weight:bold;line-height:112.99999952%;letter-spacing:1.47000003px;fill:#ffffff;font-family:Chewy;-inkscape-font-specification:Chewy Bold Italic"
           d="m -659.36518,714.24274 c -0.66407,0 -1.21094,-0.17578 -1.64063,-0.52735 -0.41667,-0.35156 -0.74219,-0.80078 -0.97656,-1.34765 -0.22136,-0.54688 -0.35156,-1.15234 -0.39063,-1.81641 -0.0391,-0.67708 0.007,-1.34114 0.13672,-1.99219 0.14323,-0.6901 0.3711,-1.39973 0.6836,-2.1289 0.32552,-0.74218 0.72265,-1.41275 1.1914,-2.01172 0.46875,-0.61197 1.01562,-1.10676 1.64063,-1.48438 0.62499,-0.39061 1.3151,-0.58592 2.07031,-0.58593 0.72916,10e-6 1.30859,0.20183 1.73828,0.60546 0.4427,0.39064 0.76171,0.88543 0.95703,1.48438 0.19531,0.58595 0.28645,1.23048 0.27344,1.93359 -0.013,0.70313 -0.10418,1.3672 -0.27344,1.99219 -0.16928,0.69011 -0.41667,1.38672 -0.74218,2.08984 -0.31251,0.70313 -0.69663,1.33464 -1.15235,1.89454 -0.44271,0.55989 -0.96355,1.01562 -1.5625,1.36718 -0.58594,0.35157 -1.23698,0.52735 -1.95312,0.52735 m 1.97265,-8.82813 c -0.19532,10e-6 -0.39063,0.10418 -0.58593,0.3125 -0.19532,0.20834 -0.3711,0.46225 -0.52735,0.76172 -0.15625,0.29949 -0.29297,0.6185 -0.41015,0.95703 -0.1172,0.32553 -0.20183,0.61199 -0.25391,0.85938 -0.0651,0.3125 -0.10417,0.65104 -0.11719,1.01562 -0.013,0.36459 0,0.70313 0.0391,1.01563 0.0521,0.29948 0.13021,0.55339 0.23438,0.76172 0.10416,0.19531 0.2539,0.29297 0.44922,0.29296 0.20833,10e-6 0.40364,-0.0977 0.58594,-0.29296 0.1953,-0.19531 0.37108,-0.44271 0.52734,-0.74219 0.15624,-0.29948 0.28645,-0.625 0.39062,-0.97656 0.11719,-0.36458 0.20182,-0.70312 0.25391,-1.01563 0.0651,-0.28645 0.10416,-0.59895 0.11719,-0.9375 0.013,-0.35156 -1e-5,-0.67708 -0.0391,-0.97656 -0.026,-0.29947 -0.0977,-0.54687 -0.21485,-0.74219 -0.10417,-0.1953 -0.25391,-0.29296 -0.44922,-0.29297"
           inkscape:connector-curvature="0" />
        <path
           id="path3939"
           style="font-size:20px;font-style:italic;font-weight:bold;line-height:112.99999952%;letter-spacing:1.47000003px;fill:#ffffff;font-family:Chewy;-inkscape-font-specification:Chewy Bold Italic"
           d="m -648.12956,714.37946 c -0.92448,-10e-6 -1.62109,-0.1237 -2.08984,-0.3711 -0.46875,-0.23437 -0.78776,-0.57291 -0.95703,-1.01562 -0.15625,-0.44271 -0.20183,-0.97656 -0.13672,-1.60157 0.0781,-0.62499 0.19531,-1.32161 0.35156,-2.08984 0.11719,-0.61197 0.2539,-1.22395 0.41016,-1.83594 0.16927,-0.62499 0.36458,-1.28905 0.58593,-1.99218 -0.18229,0 -0.32552,0.007 -0.42968,0.0195 -0.10417,10e-6 -0.18881,10e-6 -0.25391,0 -0.41667,10e-6 -0.76172,-0.0911 -1.03516,-0.27344 -0.27343,-0.18228 -0.37109,-0.46223 -0.29296,-0.83984 0.0521,-0.23437 0.18229,-0.4427 0.39062,-0.625 0.20833,-0.18229 0.46224,-0.33854 0.76172,-0.46875 0.29948,-0.1302 0.61849,-0.23437 0.95703,-0.3125 0.33854,-0.0781 0.65104,-0.1302 0.9375,-0.15625 0.0781,-0.36458 0.18229,-0.76822 0.3125,-1.21094 0.14323,-0.4427 0.31901,-0.85285 0.52734,-1.23047 0.22135,-0.39061 0.47526,-0.71613 0.76172,-0.97656 0.28646,-0.26041 0.61198,-0.39061 0.97657,-0.39063 0.20832,2e-5 0.37759,0.0651 0.50781,0.19531 0.14322,0.11721 0.24739,0.27346 0.3125,0.46875 0.0781,0.18231 0.11718,0.39064 0.11719,0.625 -10e-6,0.23439 -0.0195,0.46226 -0.0586,0.6836 -0.0521,0.26043 -0.1237,0.52735 -0.21484,0.80078 -0.0912,0.27345 -0.23438,0.61199 -0.42969,1.01562 0.23437,-0.026 0.39062,-0.039 0.46875,-0.0391 0.0781,-0.013 0.14973,-0.0195 0.21484,-0.0195 0.22135,10e-6 0.44922,0.0195 0.6836,0.0586 0.23436,0.0391 0.4427,0.10418 0.625,0.19532 0.18228,0.0911 0.319,0.21485 0.41015,0.37109 0.10416,0.14324 0.13671,0.31902 0.0977,0.52734 -0.0391,0.23439 -0.17579,0.44272 -0.41016,0.625 -0.22136,0.1823 -0.48829,0.33855 -0.80078,0.46875 -0.3125,0.13022 -0.63802,0.23439 -0.97656,0.3125 -0.33855,0.0651 -0.65756,0.11069 -0.95703,0.13672 -0.1823,0.53386 -0.33855,1.02866 -0.46875,1.48438 -0.11719,0.44271 -0.24089,0.89193 -0.37109,1.34765 -0.0651,0.22136 -0.13022,0.44923 -0.19532,0.6836 -0.0651,0.22136 -0.1237,0.44922 -0.17578,0.68359 -0.026,0.16928 -0.0586,0.3711 -0.0977,0.60547 -0.026,0.22136 -0.026,0.4362 0,0.64453 0.039,0.20834 0.1302,0.39063 0.27343,0.54688 0.14323,0.14323 0.36458,0.21484 0.66407,0.21484 0.18228,0 0.37108,-0.013 0.5664,-0.0391 0.20833,-0.0391 0.41015,-0.0586 0.60547,-0.0586 0.33854,10e-6 0.55989,0.11719 0.66406,0.35157 0.10416,0.23437 0.11718,0.53385 0.0391,0.89843 -0.0521,0.27344 -0.1823,0.51433 -0.39063,0.72266 -0.19532,0.19531 -0.42969,0.35156 -0.70312,0.46875 -0.27345,0.13021 -0.57293,0.22786 -0.89844,0.29297 -0.31251,0.0651 -0.60548,0.0977 -0.87891,0.0977"
           inkscape:connector-curvature="0" />
        <path
           id="path3941"
           style="font-size:20px;font-style:italic;font-weight:bold;line-height:112.99999952%;letter-spacing:1.47000003px;fill:#ffffff;font-family:Chewy;-inkscape-font-specification:Chewy Bold Italic"
           d="m -639.97987,714.24274 c -0.66407,0 -1.21094,-0.17578 -1.64063,-0.52735 -0.41666,-0.35156 -0.74219,-0.80078 -0.97656,-1.34765 -0.22135,-0.54688 -0.35156,-1.15234 -0.39062,-1.81641 -0.0391,-0.67708 0.007,-1.34114 0.13672,-1.99219 0.14322,-0.6901 0.37109,-1.39973 0.68359,-2.1289 0.32552,-0.74218 0.72265,-1.41275 1.19141,-2.01172 0.46874,-0.61197 1.01562,-1.10676 1.64062,-1.48438 0.62499,-0.39061 1.3151,-0.58592 2.07031,-0.58593 0.72916,10e-6 1.30859,0.20183 1.73828,0.60546 0.4427,0.39064 0.76171,0.88543 0.95704,1.48438 0.1953,0.58595 0.28644,1.23048 0.27343,1.93359 -0.013,0.70313 -0.10417,1.3672 -0.27343,1.99219 -0.16928,0.69011 -0.41668,1.38672 -0.74219,2.08984 -0.31251,0.70313 -0.69662,1.33464 -1.15235,1.89454 -0.44271,0.55989 -0.96354,1.01562 -1.5625,1.36718 -0.58594,0.35157 -1.23698,0.52735 -1.95312,0.52735 m 1.97266,-8.82813 c -0.19532,10e-6 -0.39064,0.10418 -0.58594,0.3125 -0.19532,0.20834 -0.3711,0.46225 -0.52735,0.76172 -0.15625,0.29949 -0.29297,0.6185 -0.41015,0.95703 -0.11719,0.32553 -0.20183,0.61199 -0.25391,0.85938 -0.0651,0.3125 -0.10417,0.65104 -0.11719,1.01562 -0.013,0.36459 0,0.70313 0.0391,1.01563 0.0521,0.29948 0.1302,0.55339 0.23437,0.76172 0.10416,0.19531 0.2539,0.29297 0.44922,0.29296 0.20833,10e-6 0.40364,-0.0977 0.58594,-0.29296 0.1953,-0.19531 0.37109,-0.44271 0.52734,-0.74219 0.15625,-0.29948 0.28645,-0.625 0.39063,-0.97656 0.11718,-0.36458 0.20181,-0.70312 0.2539,-1.01563 0.0651,-0.28645 0.10416,-0.59895 0.11719,-0.9375 0.013,-0.35156 -10e-6,-0.67708 -0.0391,-0.97656 -0.026,-0.29947 -0.0977,-0.54687 -0.21485,-0.74219 -0.10417,-0.1953 -0.25391,-0.29296 -0.44921,-0.29297"
           inkscape:connector-curvature="0" />
        <path
           id="path3943"
           style="font-size:20px;font-style:italic;font-weight:bold;line-height:112.99999952%;letter-spacing:1.47000003px;fill:#ffffff;font-family:Chewy;-inkscape-font-specification:Chewy Bold Italic"
           d="m -616.51253,710.78571 c -0.0521,0.26041 -0.14324,0.57291 -0.27344,0.9375 -0.11719,0.36458 -0.27344,0.71614 -0.46875,1.05468 -0.19532,0.32552 -0.42969,0.60547 -0.70312,0.83985 -0.26043,0.22135 -0.57293,0.33203 -0.9375,0.33203 -0.48178,0 -0.8073,-0.17578 -0.97656,-0.52735 -0.16928,-0.35156 -0.26043,-0.76822 -0.27344,-1.25 -10e-6,-0.49479 0.0391,-0.99609 0.11719,-1.5039 0.0911,-0.50781 0.15624,-0.91146 0.19531,-1.21094 -0.96355,0.15625 -1.91407,0.29297 -2.85156,0.41016 -0.0911,0.29948 -0.22136,0.67057 -0.39063,1.11328 -0.16927,0.44271 -0.38412,0.8724 -0.64453,1.28906 -0.26042,0.40365 -0.5599,0.75521 -0.89844,1.05469 -0.33854,0.29948 -0.70963,0.44922 -1.11328,0.44922 -0.3125,0 -0.53385,-0.11068 -0.66406,-0.33203 -0.13021,-0.23438 -0.20834,-0.50782 -0.23438,-0.82032 -0.026,-0.3125 -0.0195,-0.63151 0.0195,-0.95703 0.0521,-0.33854 0.0977,-0.61849 0.13671,-0.83984 0.15625,-0.74219 0.36459,-1.47135 0.625,-2.1875 0.26042,-0.72916 0.54037,-1.45182 0.83985,-2.16797 0.15625,-0.3776 0.34505,-0.82031 0.5664,-1.32813 0.23438,-0.5078 0.5013,-1.02863 0.80079,-1.5625 0.29947,-0.54686 0.62499,-1.08071 0.97656,-1.60156 0.36458,-0.53384 0.74869,-1.0091 1.15234,-1.42578 0.41666,-0.41665 0.85937,-0.75519 1.32813,-1.01562 0.46874,-0.26041 0.95702,-0.39061 1.46484,-0.39063 0.49478,2e-5 0.89843,0.11069 1.21094,0.33203 0.32551,0.22137 0.58592,0.51434 0.78125,0.87891 0.20832,0.36459 0.35806,0.78126 0.44922,1.25 0.0911,0.45574 0.14972,0.92449 0.17578,1.40625 0.026,0.46876 0.0325,0.931 0.0195,1.38672 -10e-6,0.45573 -10e-6,0.85938 0,1.21093 -10e-6,0.84637 -0.0326,1.70574 -0.0977,2.57813 -0.0521,0.85938 -0.16277,1.72526 -0.33203,2.59766 m -2.83203,-4.7461 c 0.039,-0.15624 0.0846,-0.41015 0.13672,-0.76172 0.0521,-0.36457 0.0781,-0.72264 0.0781,-1.07422 0.013,-0.36457 -0.026,-0.68358 -0.11718,-0.95703 -0.0781,-0.28644 -0.23439,-0.42967 -0.46875,-0.42968 -0.13022,10e-6 -0.27345,0.0911 -0.42969,0.27343 -0.14324,0.16928 -0.28647,0.39064 -0.42969,0.66407 -0.14323,0.26042 -0.28646,0.55339 -0.42969,0.8789 -0.13021,0.32553 -0.25391,0.63803 -0.37109,0.9375 -0.11719,0.29949 -0.21485,0.57293 -0.29297,0.82031 -0.0651,0.23439 -0.11719,0.40366 -0.15625,0.50782 0.79427,-0.0651 1.58203,-0.16276 2.36328,-0.29297 l 0.11719,-0.56641"
           inkscape:connector-curvature="0" />
        <path
           id="path3945"
           style="font-size:20px;font-style:italic;font-weight:bold;line-height:112.99999952%;letter-spacing:1.47000003px;fill:#ffffff;font-family:Chewy;-inkscape-font-specification:Chewy Bold Italic"
           d="m -603.83159,707.23102 c -0.0781,0.37761 -0.19532,0.8073 -0.35156,1.28906 -0.14324,0.46876 -0.33204,0.95053 -0.56641,1.44531 -0.22136,0.4948 -0.48178,0.97657 -0.78125,1.44532 -0.28647,0.46875 -0.61199,0.89192 -0.97656,1.26953 -0.36459,0.36458 -0.76173,0.65755 -1.19141,0.8789 -0.42969,0.22136 -0.89844,0.33203 -1.40625,0.33203 -0.53386,0 -0.9961,-0.12369 -1.38672,-0.37109 -0.39063,-0.24739 -0.69661,-0.58594 -0.91796,-1.01562 -0.10417,0.35156 -0.31251,0.66406 -0.625,0.9375 -0.29949,0.26041 -0.63803,0.39062 -1.01563,0.39062 -0.22136,0 -0.38412,-0.11068 -0.48828,-0.33203 -0.10417,-0.22135 -0.16927,-0.5013 -0.19531,-0.83984 -0.013,-0.35157 0,-0.73568 0.0391,-1.15235 0.0391,-0.41666 0.0911,-0.82031 0.15625,-1.21094 0.0651,-0.39062 0.1237,-0.74218 0.17578,-1.05468 0.0651,-0.3125 0.11068,-0.53385 0.13672,-0.66407 0.0911,-0.4427 0.18229,-0.88541 0.27344,-1.32812 0.10416,-0.4427 0.20833,-0.89192 0.3125,-1.34766 0.0391,-0.22134 0.0976,-0.55337 0.17578,-0.99609 0.0911,-0.4427 0.19531,-0.93098 0.3125,-1.46484 0.11718,-0.54687 0.2539,-1.10025 0.41015,-1.66016 0.16927,-0.5729 0.35807,-1.09374 0.56641,-1.5625 0.20833,-0.46874 0.4427,-0.85285 0.70313,-1.15234 0.27343,-0.29947 0.57291,-0.45572 0.89843,-0.46875 0.26041,10e-6 0.46224,0.0912 0.60547,0.27343 0.15625,0.18231 0.26692,0.42319 0.33203,0.72266 0.0651,0.29949 0.0911,0.63803 0.0781,1.01562 -10e-6,0.3646 -0.0195,0.73569 -0.0586,1.11329 -0.0391,0.36459 -0.0911,0.71615 -0.15625,1.05468 -0.0521,0.32553 -0.10417,0.59246 -0.15625,0.80078 0,0.0391 -0.0195,0.13022 -0.0586,0.27344 -0.026,0.13022 -0.0586,0.27345 -0.0977,0.42969 -0.026,0.15626 -0.0521,0.29949 -0.0781,0.42969 -0.026,0.11719 -0.0391,0.1823 -0.0391,0.19531 0.16926,-0.24739 0.3841,-0.48827 0.64453,-0.72266 0.27343,-0.23436 0.55989,-0.4427 0.85937,-0.625 0.3125,-0.18228 0.63151,-0.33202 0.95703,-0.44922 0.32552,-0.11717 0.625,-0.17577 0.89844,-0.17578 0.54687,1e-5 0.97655,0.14324 1.28906,0.42969 0.31249,0.27345 0.53385,0.62501 0.66407,1.05469 0.14321,0.42969 0.20832,0.89844 0.19531,1.40625 -10e-6,0.4948 -0.0456,0.96355 -0.13672,1.40625 m -2.98828,0.58594 c 0.026,-0.15625 0.0456,-0.32552 0.0586,-0.50782 0.026,-0.18228 0.0195,-0.35155 -0.0195,-0.50781 -0.0391,-0.15624 -0.11068,-0.28645 -0.21484,-0.39062 -0.10418,-0.10416 -0.25392,-0.15625 -0.44922,-0.15625 -0.20834,0 -0.42319,0.0456 -0.64453,0.13671 -0.22136,0.0912 -0.43621,0.20834 -0.64453,0.35157 -0.20834,0.14323 -0.41017,0.29948 -0.60547,0.46875 -0.1823,0.15625 -0.35157,0.3125 -0.50781,0.46875 l -0.52735,1.73828 c 0.14323,0.29948 0.34505,0.54037 0.60547,0.72265 0.27343,0.16928 0.59895,0.25391 0.97656,0.25391 0.28645,0 0.54036,-0.0911 0.76172,-0.27344 0.22135,-0.18228 0.41015,-0.40364 0.56641,-0.66406 0.16926,-0.27343 0.30598,-0.55989 0.41015,-0.85937 0.11718,-0.29948 0.19531,-0.55989 0.23438,-0.78125"
           inkscape:connector-curvature="0" />
        <path
           id="path3947"
           style="font-size:20px;font-style:italic;font-weight:bold;line-height:112.99999952%;letter-spacing:1.47000003px;fill:#ffffff;font-family:Chewy;-inkscape-font-specification:Chewy Bold Italic"
           d="m -593.57253,710.19977 c -0.0911,0.44271 -0.31902,0.87891 -0.68359,1.30859 -0.36459,0.41667 -0.79428,0.79427 -1.28906,1.13281 -0.48178,0.32553 -0.98959,0.59245 -1.52344,0.80079 -0.52084,0.19531 -0.98308,0.29296 -1.38672,0.29296 -0.69011,0 -1.26953,-0.16927 -1.73828,-0.50781 -0.46875,-0.35156 -0.83334,-0.79427 -1.09375,-1.32812 -0.26042,-0.53386 -0.42318,-1.11979 -0.48828,-1.75782 -0.0521,-0.65103 -0.013,-1.28254 0.11719,-1.89453 0.1302,-0.65103 0.35807,-1.34765 0.68359,-2.08984 0.32552,-0.74218 0.73567,-1.42577 1.23047,-2.05078 0.50781,-0.62499 1.08072,-1.14582 1.71875,-1.5625 0.65103,-0.41666 1.36718,-0.62499 2.14844,-0.625 0.4427,1e-5 0.85285,0.0781 1.23047,0.23437 0.37759,0.14324 0.68358,0.35158 0.91796,0.625 0.24739,0.27345 0.42317,0.59897 0.52735,0.97657 0.11718,0.37761 0.1302,0.80079 0.0391,1.26953 -0.13022,0.61198 -0.37761,1.1849 -0.74219,1.71875 -0.36459,0.53386 -0.80079,0.9961 -1.30859,1.38672 -0.50782,0.39063 -1.06772,0.70964 -1.67969,0.95703 -0.61198,0.23438 -1.21094,0.36458 -1.79687,0.39062 -0.0261,0.37761 0.0716,0.65105 0.29297,0.82031 0.22134,0.16928 0.5078,0.25391 0.85937,0.25391 0.26041,0 0.52734,-0.0651 0.80078,-0.19531 0.27343,-0.13021 0.54036,-0.27344 0.80078,-0.42969 0.27343,-0.16927 0.53385,-0.31901 0.78125,-0.44922 0.26041,-0.1302 0.50781,-0.19531 0.74219,-0.19531 0.26041,0 0.47525,0.0846 0.64453,0.25391 0.18228,0.16927 0.24739,0.39062 0.19531,0.66406 m -2.20703,-4.78516 c 0.026,-0.16926 0.013,-0.34504 -0.0391,-0.52734 -0.0521,-0.18228 -0.17579,-0.27343 -0.37109,-0.27344 -0.28647,10e-6 -0.54688,0.0781 -0.78125,0.23438 -0.22136,0.14323 -0.42319,0.33204 -0.60547,0.5664 -0.16928,0.22136 -0.31902,0.46225 -0.44922,0.72266 -0.11719,0.26042 -0.20183,0.50131 -0.25391,0.72265 0.18229,-0.039 0.40364,-0.0911 0.66407,-0.15625 0.27343,-0.0651 0.53384,-0.14973 0.78125,-0.2539 0.26041,-0.11718 0.48827,-0.26041 0.68359,-0.42969 0.1953,-0.16926 0.319,-0.37109 0.37109,-0.60547"
           inkscape:connector-curvature="0" />
        <path
           id="path3949"
           style="font-size:20px;font-style:italic;font-weight:bold;line-height:112.99999952%;letter-spacing:1.47000003px;fill:#ffffff;font-family:Chewy;-inkscape-font-specification:Chewy Bold Italic"
           d="m -583.76268,706.37164 c -0.1823,0.013 -0.33855,1e-5 -0.46875,-0.0391 -0.1172,-0.0521 -0.23438,-0.10416 -0.35156,-0.15625 -0.10418,-0.0521 -0.21486,-0.0977 -0.33203,-0.13672 -0.10418,-0.0521 -0.22788,-0.0716 -0.3711,-0.0586 -0.26042,0.013 -0.50782,0.0846 -0.74219,0.21484 -0.22136,0.13022 -0.4362,0.29298 -0.64453,0.48828 -0.19532,0.19532 -0.37761,0.41668 -0.54687,0.66407 -0.16928,0.23438 -0.306,0.46875 -0.41016,0.70312 -0.0781,0.15626 -0.16276,0.39714 -0.2539,0.72266 -0.0781,0.3125 -0.14975,0.65104 -0.21485,1.01562 -0.0911,0.37761 -0.16927,0.73568 -0.23437,1.07422 -0.0651,0.33854 -0.13022,0.60547 -0.19532,0.80078 -0.0651,0.20834 -0.14974,0.45573 -0.2539,0.74219 -0.10417,0.27344 -0.24089,0.53385 -0.41016,0.78125 -0.15625,0.2474 -0.34505,0.45573 -0.5664,0.625 -0.20834,0.16927 -0.45574,0.25391 -0.74219,0.25391 -0.22136,0 -0.40365,-0.0651 -0.54688,-0.19532 -0.13021,-0.13021 -0.22786,-0.29948 -0.29297,-0.50781 -0.0651,-0.22135 -0.11067,-0.47526 -0.13671,-0.76172 -0.013,-0.28646 -0.007,-0.57942 0.0195,-0.8789 0.026,-0.3125 0.0586,-0.625 0.0977,-0.9375 0.0391,-0.3125 0.0846,-0.60547 0.13672,-0.87891 0.0521,-0.28645 0.10417,-0.54687 0.15625,-0.78125 0.0521,-0.23437 0.0911,-0.42317 0.11719,-0.56641 0.0781,-0.45572 0.14974,-0.91145 0.21484,-1.36718 0.0651,-0.46875 0.14323,-0.93099 0.23438,-1.38672 0.0521,-0.28645 0.12369,-0.60546 0.21484,-0.95703 0.10417,-0.35156 0.24088,-0.67708 0.41016,-0.97657 0.18229,-0.31249 0.41015,-0.5729 0.68359,-0.78125 0.27344,-0.20832 0.61198,-0.31249 1.01563,-0.3125 0.22135,10e-6 0.39062,0.0716 0.50781,0.21485 0.1302,0.14324 0.22135,0.31902 0.27344,0.52734 0.0651,0.20834 0.0977,0.4297 0.0977,0.66406 0.013,0.23439 0.007,0.44923 -0.0195,0.64453 0.40364,-0.5078 0.83333,-0.91795 1.28906,-1.23046 0.45573,-0.32551 1.0026,-0.5013 1.64063,-0.52735 0.31249,-0.013 0.61197,0.0195 0.89844,0.0977 0.29947,0.0651 0.55988,0.1823 0.78125,0.35156 0.22134,0.15626 0.3841,0.36459 0.48828,0.625 0.11717,0.26043 0.14322,0.56642 0.0781,0.91797 -0.0521,0.41667 -0.24089,0.73568 -0.5664,0.95703 -0.31251,0.22136 -0.66408,0.33855 -1.05469,0.35156"
           inkscape:connector-curvature="0" />
        <path
           id="path3951"
           style="font-size:20px;font-style:italic;font-weight:bold;line-height:112.99999952%;letter-spacing:1.47000003px;fill:#ffffff;font-family:Chewy;-inkscape-font-specification:Chewy Bold Italic"
           d="m -577.6833,714.37946 c -0.92449,-10e-6 -1.6211,-0.1237 -2.08985,-0.3711 -0.46875,-0.23437 -0.78776,-0.57291 -0.95703,-1.01562 -0.15625,-0.44271 -0.20182,-0.97656 -0.13672,-1.60157 0.0781,-0.62499 0.19531,-1.32161 0.35156,-2.08984 0.11719,-0.61197 0.25391,-1.22395 0.41016,-1.83594 0.16927,-0.62499 0.36458,-1.28905 0.58594,-1.99218 -0.1823,0 -0.32553,0.007 -0.42969,0.0195 -0.10417,10e-6 -0.1888,10e-6 -0.25391,0 -0.41666,10e-6 -0.76172,-0.0911 -1.03515,-0.27344 -0.27344,-0.18228 -0.3711,-0.46223 -0.29297,-0.83984 0.0521,-0.23437 0.18229,-0.4427 0.39062,-0.625 0.20834,-0.18229 0.46224,-0.33854 0.76172,-0.46875 0.29948,-0.1302 0.61849,-0.23437 0.95703,-0.3125 0.33854,-0.0781 0.65104,-0.1302 0.9375,-0.15625 0.0781,-0.36458 0.18229,-0.76822 0.3125,-1.21094 0.14323,-0.4427 0.31901,-0.85285 0.52735,-1.23047 0.22135,-0.39061 0.47525,-0.71613 0.76172,-0.97656 0.28645,-0.26041 0.61197,-0.39061 0.97656,-0.39063 0.20833,2e-5 0.3776,0.0651 0.50781,0.19531 0.14322,0.11721 0.24739,0.27346 0.3125,0.46875 0.0781,0.18231 0.11718,0.39064 0.11719,0.625 -10e-6,0.23439 -0.0195,0.46226 -0.0586,0.6836 -0.0521,0.26043 -0.12371,0.52735 -0.21485,0.80078 -0.0911,0.27345 -0.23438,0.61199 -0.42969,1.01562 0.23437,-0.026 0.39062,-0.039 0.46875,-0.0391 0.0781,-0.013 0.14974,-0.0195 0.21485,-0.0195 0.22134,10e-6 0.44921,0.0195 0.68359,0.0586 0.23437,0.0391 0.4427,0.10418 0.625,0.19532 0.18228,0.0911 0.319,0.21485 0.41016,0.37109 0.10415,0.14324 0.13671,0.31902 0.0976,0.52734 -0.0391,0.23439 -0.17579,0.44272 -0.41015,0.625 -0.22137,0.1823 -0.48829,0.33855 -0.80078,0.46875 -0.31251,0.13022 -0.63803,0.23439 -0.97657,0.3125 -0.33854,0.0651 -0.65755,0.11069 -0.95703,0.13672 -0.1823,0.53386 -0.33855,1.02866 -0.46875,1.48438 -0.11719,0.44271 -0.24089,0.89193 -0.37109,1.34765 -0.0651,0.22136 -0.13021,0.44923 -0.19531,0.6836 -0.0651,0.22136 -0.12371,0.44922 -0.17578,0.68359 -0.026,0.16928 -0.0586,0.3711 -0.0977,0.60547 -0.026,0.22136 -0.026,0.4362 0,0.64453 0.0391,0.20834 0.1302,0.39063 0.27344,0.54688 0.14322,0.14323 0.36457,0.21484 0.66406,0.21484 0.18228,0 0.37109,-0.013 0.56641,-0.0391 0.20832,-0.0391 0.41014,-0.0586 0.60546,-0.0586 0.33854,10e-6 0.55989,0.11719 0.66407,0.35157 0.10416,0.23437 0.11718,0.53385 0.0391,0.89843 -0.0521,0.27344 -0.1823,0.51433 -0.39063,0.72266 -0.19532,0.19531 -0.42969,0.35156 -0.70312,0.46875 -0.27345,0.13021 -0.57292,0.22786 -0.89844,0.29297 -0.3125,0.0651 -0.60547,0.0977 -0.8789,0.0977"
           inkscape:connector-curvature="0" />
        <path
           id="path3953"
           style="font-size:20px;font-style:italic;font-weight:bold;line-height:112.99999952%;letter-spacing:1.47000003px;fill:#ffffff;font-family:Chewy;-inkscape-font-specification:Chewy Bold Italic"
           d="m -569.53362,714.24274 c -0.66407,0 -1.21094,-0.17578 -1.64063,-0.52735 -0.41667,-0.35156 -0.74219,-0.80078 -0.97656,-1.34765 -0.22136,-0.54688 -0.35157,-1.15234 -0.39063,-1.81641 -0.0391,-0.67708 0.007,-1.34114 0.13672,-1.99219 0.14323,-0.6901 0.37109,-1.39973 0.6836,-2.1289 0.32551,-0.74218 0.72265,-1.41275 1.1914,-2.01172 0.46875,-0.61197 1.01562,-1.10676 1.64063,-1.48438 0.62499,-0.39061 1.3151,-0.58592 2.07031,-0.58593 0.72916,10e-6 1.30859,0.20183 1.73828,0.60546 0.4427,0.39064 0.76171,0.88543 0.95703,1.48438 0.19531,0.58595 0.28645,1.23048 0.27344,1.93359 -0.013,0.70313 -0.10418,1.3672 -0.27344,1.99219 -0.16928,0.69011 -0.41667,1.38672 -0.74219,2.08984 -0.3125,0.70313 -0.69662,1.33464 -1.15234,1.89454 -0.44271,0.55989 -0.96355,1.01562 -1.5625,1.36718 -0.58594,0.35157 -1.23698,0.52735 -1.95312,0.52735 m 1.97265,-8.82813 c -0.19532,10e-6 -0.39063,0.10418 -0.58594,0.3125 -0.19531,0.20834 -0.37109,0.46225 -0.52734,0.76172 -0.15625,0.29949 -0.29297,0.6185 -0.41016,0.95703 -0.11719,0.32553 -0.20182,0.61199 -0.2539,0.85938 -0.0651,0.3125 -0.10417,0.65104 -0.11719,1.01562 -0.013,0.36459 0,0.70313 0.0391,1.01563 0.0521,0.29948 0.13021,0.55339 0.23438,0.76172 0.10416,0.19531 0.2539,0.29297 0.44922,0.29296 0.20833,10e-6 0.40364,-0.0977 0.58593,-0.29296 0.19531,-0.19531 0.37109,-0.44271 0.52735,-0.74219 0.15624,-0.29948 0.28645,-0.625 0.39062,-0.97656 0.11718,-0.36458 0.20182,-0.70312 0.25391,-1.01563 0.0651,-0.28645 0.10416,-0.59895 0.11719,-0.9375 0.013,-0.35156 -10e-6,-0.67708 -0.0391,-0.97656 -0.026,-0.29947 -0.0977,-0.54687 -0.21484,-0.74219 -0.10417,-0.1953 -0.25391,-0.29296 -0.44922,-0.29297"
           inkscape:connector-curvature="0" />
        <path
           id="path3955"
           style="font-size:20px;font-style:italic;font-weight:bold;line-height:112.99999952%;letter-spacing:1.47000003px;fill:#ffffff;font-family:Chewy;-inkscape-font-specification:Chewy Bold Italic"
           d="m -558.72769,707.95367 c -0.0391,0.16928 -0.11068,0.32553 -0.21484,0.46875 -0.10417,0.13022 -0.22787,0.24089 -0.37109,0.33204 -0.14324,0.0911 -0.29949,0.16276 -0.46875,0.21484 -0.15626,0.0521 -0.31251,0.0781 -0.46875,0.0781 -0.19532,10e-6 -0.39714,-0.0325 -0.60547,-0.0977 -0.20834,-0.0781 -0.39714,-0.17578 -0.56641,-0.29297 -0.16927,-0.1302 -0.29948,-0.27994 -0.39062,-0.44922 -0.0911,-0.18229 -0.11719,-0.38411 -0.0781,-0.60547 0.0781,-0.36458 0.27995,-0.6315 0.60547,-0.80078 0.33854,-0.18228 0.66406,-0.27343 0.97656,-0.27344 0.19531,10e-6 0.39063,0.0326 0.58594,0.0977 0.20833,0.0651 0.39062,0.16277 0.54688,0.29297 0.16926,0.11719 0.29296,0.26693 0.37109,0.44922 0.0911,0.16927 0.11718,0.36459 0.0781,0.58593 m -0.95703,4.78516 c -0.0391,0.16927 -0.11068,0.32552 -0.21484,0.46875 -0.10417,0.13021 -0.22787,0.24089 -0.37109,0.33203 -0.14324,0.0911 -0.29949,0.16276 -0.46875,0.21485 -0.15626,0.0521 -0.31251,0.0781 -0.46875,0.0781 -0.19532,0 -0.39714,-0.0391 -0.60547,-0.11719 -0.20834,-0.0651 -0.39714,-0.16276 -0.56641,-0.29297 -0.15625,-0.1302 -0.28646,-0.27994 -0.39062,-0.44921 -0.0911,-0.1823 -0.11719,-0.38412 -0.0781,-0.60547 0.0781,-0.35156 0.27995,-0.61198 0.60547,-0.78125 0.33854,-0.18229 0.66406,-0.27344 0.97656,-0.27344 0.19531,0 0.39062,0.0326 0.58594,0.0977 0.20833,0.0651 0.39062,0.16276 0.54687,0.29296 0.16927,0.11719 0.29297,0.26693 0.3711,0.44922 0.0911,0.16928 0.11718,0.36459 0.0781,0.58594"
           inkscape:connector-curvature="0" />
        <path
           id="path3957"
           style="font-size:20px;font-style:italic;font-weight:bold;line-height:112.99999952%;letter-spacing:1.47000003px;fill:#ffffff;font-family:Chewy;-inkscape-font-specification:Chewy Bold Italic"
           d="m -649.52862,733.20992 c -0.0391,0.2474 -0.14975,0.48829 -0.33203,0.72266 -0.16928,0.22136 -0.52735,0.48177 -1.07422,0.78125 -0.54688,0.29948 -1.13933,0.58594 -1.77734,0.85938 -0.63803,0.26041 -1.25001,0.48828 -1.83594,0.68359 -0.58594,0.18229 -1.00912,0.27344 -1.26953,0.27344 -0.1823,0 -0.39063,-0.0456 -0.625,-0.13672 -0.22136,-0.0781 -0.44271,-0.18229 -0.66407,-0.3125 -0.22135,-0.13021 -0.41666,-0.27995 -0.58593,-0.44922 -0.16928,-0.16927 -0.27995,-0.33203 -0.33203,-0.48828 -0.0391,-0.0911 -0.0586,-0.27344 -0.0586,-0.54688 0.013,-0.27343 0.0391,-0.59244 0.0781,-0.95703 0.0521,-0.36458 0.10416,-0.74869 0.15625,-1.15234 0.0521,-0.41666 0.10416,-0.80729 0.15625,-1.17188 0.0651,-0.3776 0.11718,-0.70963 0.15625,-0.99609 0.0521,-0.28645 0.0911,-0.49479 0.11718,-0.625 0.10417,-0.48176 0.23438,-1.03515 0.39063,-1.66016 0.15625,-0.62499 0.33854,-1.24999 0.54687,-1.875 0.22136,-0.63801 0.47526,-1.24348 0.76172,-1.8164 0.29948,-0.58593 0.63802,-1.08072 1.01563,-1.48438 0.11718,-0.11717 0.32551,-0.24087 0.625,-0.37109 0.29947,-0.1302 0.64452,-0.25389 1.03515,-0.3711 0.40364,-0.11717 0.82682,-0.22785 1.26954,-0.33203 0.45572,-0.10415 0.8854,-0.18878 1.28906,-0.2539 0.41666,-0.0781 0.79426,-0.13671 1.13281,-0.17578 0.33853,-0.0521 0.59244,-0.0781 0.76172,-0.0781 0.1953,2e-5 0.37108,0.0456 0.52734,0.13672 0.15624,0.0781 0.27994,0.18882 0.3711,0.33203 0.10415,0.14324 0.16926,0.306 0.19531,0.48828 0.0391,0.16929 0.0391,0.35158 0,0.54688 -0.026,0.16928 -0.0781,0.31251 -0.15625,0.42968 -0.0651,0.1172 -0.15626,0.24741 -0.27344,0.39063 -0.16928,0.16928 -0.48829,0.37111 -0.95703,0.60547 -0.45574,0.23438 -0.95053,0.46876 -1.48437,0.70312 -0.53387,0.22137 -1.04819,0.42319 -1.54297,0.60547 -0.48178,0.1823 -0.82032,0.31251 -1.01563,0.39063 -0.10417,0.29949 -0.22136,0.60548 -0.35156,0.91797 -0.11719,0.29948 -0.22136,0.60547 -0.3125,0.91796 0.45572,-0.20832 0.95051,-0.40363 1.48437,-0.58593 0.54687,-0.18229 1.04817,-0.27343 1.50391,-0.27344 0.92447,10e-6 1.29556,0.45574 1.11328,1.36719 -0.0391,0.22136 -0.1172,0.41667 -0.23437,0.58593 -0.1172,0.16928 -0.26043,0.31902 -0.42969,0.44922 -0.15626,0.13022 -0.33204,0.24741 -0.52734,0.35157 -0.19533,0.0911 -0.39064,0.18229 -0.58594,0.27343 -0.45574,0.22136 -0.931,0.41668 -1.42578,0.58594 -0.48178,0.15626 -0.97006,0.31251 -1.46485,0.46875 -0.0391,0.10417 -0.0846,0.22136 -0.13672,0.35156 -0.0521,0.1172 -0.0911,0.23438 -0.11718,0.35157 -0.0391,0.18229 -0.0651,0.36458 -0.0781,0.54687 0,0.1823 -0.007,0.36459 -0.0195,0.54688 0.16927,-0.0521 0.43619,-0.13672 0.80078,-0.25391 0.36458,-0.11718 0.74869,-0.23437 1.15235,-0.35156 0.40363,-0.11719 0.78775,-0.21484 1.15234,-0.29297 0.3776,-0.0911 0.65103,-0.13672 0.82031,-0.13672 0.19531,0 0.36458,0.0456 0.50781,0.13672 0.15624,0.0781 0.27994,0.1888 0.3711,0.33203 0.0911,0.13021 0.14973,0.28646 0.17578,0.46875 0.0391,0.18229 0.0391,0.36459 0,0.54687"
           inkscape:connector-curvature="0" />
        <path
           id="path3959"
           style="font-size:20px;font-style:italic;font-weight:bold;line-height:112.99999952%;letter-spacing:1.47000003px;fill:#ffffff;font-family:Chewy;-inkscape-font-specification:Chewy Bold Italic"
           d="m -638.09768,730.69039 c -0.14324,0.71615 -0.35809,1.42579 -0.64453,2.12891 -0.27345,0.70313 -0.63803,1.33464 -1.09375,1.89453 -0.44272,0.54688 -0.98308,0.98958 -1.6211,1.32813 -0.63803,0.33854 -1.38021,0.50781 -2.22656,0.50781 -0.83334,0 -1.4974,-0.16276 -1.99219,-0.48828 -0.49479,-0.33854 -0.85286,-0.78125 -1.07422,-1.32813 -0.22135,-0.54687 -0.33203,-1.16536 -0.33203,-1.85547 0,-0.6901 0.0716,-1.39322 0.21485,-2.10937 0.15624,-0.78125 0.40364,-1.55598 0.74218,-2.32422 0.0781,-0.20833 0.20833,-0.49478 0.39063,-0.85938 0.19531,-0.37759 0.41666,-0.74217 0.66406,-1.09375 0.24739,-0.36457 0.50781,-0.67707 0.78125,-0.9375 0.28645,-0.2604 0.5664,-0.39061 0.83984,-0.39062 0.26042,10e-6 0.44922,0.0716 0.56641,0.21484 0.1302,0.14324 0.22135,0.32553 0.27344,0.54688 0.0521,0.20834 0.0651,0.43621 0.0391,0.68359 -0.0261,0.23439 -0.0586,0.44923 -0.0977,0.64453 -0.0521,0.29949 -0.13021,0.59246 -0.23437,0.87891 -0.10417,0.28647 -0.20834,0.57292 -0.3125,0.85937 -0.13021,0.39064 -0.26042,0.78126 -0.39063,1.17188 -0.11719,0.39063 -0.21484,0.78125 -0.29296,1.17187 -0.0391,0.19532 -0.0781,0.41668 -0.11719,0.66407 -0.026,0.23438 -0.026,0.46224 0,0.68359 0.0391,0.22136 0.11718,0.41016 0.23437,0.56641 0.11719,0.14323 0.30599,0.21484 0.56641,0.21484 0.33854,0 0.62499,-0.0911 0.85937,-0.27344 0.23437,-0.18229 0.42969,-0.41015 0.58594,-0.68359 0.15625,-0.27343 0.27343,-0.5664 0.35156,-0.87891 0.0911,-0.31249 0.16276,-0.59895 0.21485,-0.85937 0.11718,-0.57291 0.18879,-1.13281 0.21484,-1.67969 0.0391,-0.55989 0.0846,-1.12629 0.13672,-1.69922 -10e-6,-0.0651 0.013,-0.15624 0.0391,-0.27344 0.0391,-0.1953 0.11067,-0.39061 0.21485,-0.58593 0.10416,-0.19531 0.22785,-0.37109 0.37109,-0.52735 0.15624,-0.15624 0.32551,-0.27993 0.50781,-0.37109 0.19531,-0.10416 0.39713,-0.15624 0.60547,-0.15625 0.28645,10e-6 0.51432,0.10418 0.6836,0.3125 0.18228,0.19532 0.319,0.45574 0.41015,0.78125 0.0911,0.31251 0.14322,0.67058 0.15625,1.07422 0.013,0.39063 0.013,0.78126 0,1.17187 -0.013,0.37761 -0.0456,0.73569 -0.0977,1.07422 -0.0521,0.33855 -0.0977,0.60548 -0.13672,0.80078"
           inkscape:connector-curvature="0" />
        <path
           id="path3961"
           style="font-size:20px;font-style:italic;font-weight:bold;line-height:112.99999952%;letter-spacing:1.47000003px;fill:#ffffff;font-family:Chewy;-inkscape-font-specification:Chewy Bold Italic"
           d="m -619.88425,733.38571 c -0.0521,0.26041 -0.14324,0.57291 -0.27343,0.9375 -0.1172,0.36458 -0.27345,0.71614 -0.46875,1.05468 -0.19533,0.32552 -0.4297,0.60547 -0.70313,0.83985 -0.26042,0.22135 -0.57292,0.33203 -0.9375,0.33203 -0.48178,0 -0.8073,-0.17578 -0.97656,-0.52735 -0.16928,-0.35156 -0.26042,-0.76822 -0.27344,-1.25 -10e-6,-0.49479 0.0391,-0.99609 0.11719,-1.5039 0.0911,-0.50781 0.15624,-0.91146 0.19531,-1.21094 -0.96355,0.15625 -1.91407,0.29297 -2.85156,0.41016 -0.0912,0.29948 -0.22136,0.67057 -0.39063,1.11328 -0.16927,0.44271 -0.38411,0.8724 -0.64453,1.28906 -0.26042,0.40365 -0.5599,0.75521 -0.89843,1.05469 -0.33855,0.29948 -0.70964,0.44922 -1.11329,0.44922 -0.3125,0 -0.53385,-0.11068 -0.66406,-0.33203 -0.13021,-0.23438 -0.20833,-0.50782 -0.23437,-0.82032 -0.026,-0.3125 -0.0195,-0.63151 0.0195,-0.95703 0.0521,-0.33854 0.0977,-0.61849 0.13672,-0.83984 0.15625,-0.74219 0.36458,-1.47135 0.625,-2.1875 0.26041,-0.72916 0.54036,-1.45182 0.83984,-2.16797 0.15625,-0.3776 0.34505,-0.82031 0.56641,-1.32813 0.23437,-0.5078 0.5013,-1.02863 0.80078,-1.5625 0.29947,-0.54686 0.62499,-1.08071 0.97656,-1.60156 0.36458,-0.53384 0.74869,-1.0091 1.15234,-1.42578 0.41666,-0.41665 0.85937,-0.75519 1.32813,-1.01562 0.46874,-0.26041 0.95702,-0.39061 1.46484,-0.39063 0.49479,2e-5 0.89843,0.11069 1.21094,0.33203 0.32551,0.22137 0.58593,0.51434 0.78125,0.87891 0.20832,0.36459 0.35806,0.78126 0.44922,1.25 0.0911,0.45574 0.14973,0.92449 0.17578,1.40625 0.026,0.46876 0.0325,0.931 0.0195,1.38672 -10e-6,0.45573 -10e-6,0.85938 0,1.21093 -10e-6,0.84637 -0.0326,1.70574 -0.0976,2.57813 -0.0521,0.85938 -0.16278,1.72526 -0.33204,2.59766 m -2.83203,-4.7461 c 0.0391,-0.15624 0.0846,-0.41015 0.13672,-0.76172 0.0521,-0.36457 0.0781,-0.72264 0.0781,-1.07422 0.013,-0.36457 -0.026,-0.68358 -0.11719,-0.95703 -0.0781,-0.28644 -0.23438,-0.42967 -0.46875,-0.42968 -0.13022,10e-6 -0.27345,0.0911 -0.42969,0.27343 -0.14323,0.16928 -0.28646,0.39064 -0.42969,0.66407 -0.14323,0.26042 -0.28646,0.55339 -0.42968,0.8789 -0.13022,0.32553 -0.25392,0.63803 -0.3711,0.9375 -0.11719,0.29949 -0.21485,0.57293 -0.29297,0.82031 -0.0651,0.23439 -0.11719,0.40366 -0.15625,0.50782 0.79427,-0.0651 1.58203,-0.16276 2.36329,-0.29297 l 0.11718,-0.56641"
           inkscape:connector-curvature="0" />
        <path
           id="path3963"
           style="font-size:20px;font-style:italic;font-weight:bold;line-height:112.99999952%;letter-spacing:1.47000003px;fill:#ffffff;font-family:Chewy;-inkscape-font-specification:Chewy Bold Italic"
           d="m -607.61346,730.45602 c -0.1172,0.57292 -0.306,1.20443 -0.56641,1.89453 -0.26043,0.67709 -0.59897,1.3086 -1.01562,1.89453 -0.40366,0.58594 -0.88543,1.07422 -1.44532,1.46484 -0.54688,0.39063 -1.17839,0.58594 -1.89453,0.58594 -0.1823,0 -0.3711,-0.013 -0.5664,-0.0391 -0.1823,-0.026 -0.35808,-0.0716 -0.52735,-0.13672 -0.15625,-0.0651 -0.29948,-0.14974 -0.42969,-0.25391 -0.11719,-0.11718 -0.19531,-0.26692 -0.23437,-0.44921 l -0.74219,2.8125 c -0.0781,0.29947 -0.16276,0.65754 -0.2539,1.07421 -0.0781,0.41667 -0.20834,0.8138 -0.39063,1.19141 -0.16927,0.3776 -0.39714,0.69661 -0.68359,0.95703 -0.27344,0.27343 -0.625,0.41015 -1.05469,0.41016 -0.2474,-10e-6 -0.42969,-0.13022 -0.54688,-0.39063 -0.11718,-0.2474 -0.1888,-0.56641 -0.21484,-0.95703 -0.013,-0.39063 0,-0.82682 0.0391,-1.30859 0.0391,-0.48178 0.0977,-0.94401 0.17578,-1.38672 0.0781,-0.44271 0.14974,-0.84636 0.21485,-1.21094 0.0781,-0.36458 0.13672,-0.63151 0.17578,-0.80078 0.16927,-0.87239 0.33203,-1.73828 0.48828,-2.59766 0.16927,-0.87239 0.33854,-1.74478 0.50781,-2.61718 0.0391,-0.15625 0.0911,-0.39713 0.15625,-0.72266 0.0651,-0.33853 0.14974,-0.70312 0.25391,-1.09375 0.10416,-0.39062 0.22786,-0.79426 0.37109,-1.21094 0.14323,-0.41665 0.30599,-0.79426 0.48828,-1.13281 0.18229,-0.35155 0.38412,-0.6315 0.60547,-0.83984 0.23437,-0.22135 0.48177,-0.33202 0.74219,-0.33203 0.16927,10e-6 0.3125,0.0521 0.42969,0.15625 0.11718,0.0911 0.20833,0.21485 0.27344,0.37109 0.0651,0.14324 0.11067,0.29949 0.13671,0.46875 0.0391,0.16928 0.0651,0.32553 0.0781,0.46875 0.49478,-0.45572 1.02864,-0.80077 1.60156,-1.03516 0.57291,-0.23436 1.15885,-0.35155 1.75781,-0.35156 0.62499,10e-6 1.10025,0.17579 1.42579,0.52734 0.32551,0.35158 0.54686,0.78777 0.66406,1.3086 0.1302,0.52084 0.18228,1.08074 0.15625,1.67969 -0.0261,0.58594 -0.0847,1.11979 -0.17578,1.60156 m -2.77344,-0.15625 c 0.039,-0.19531 0.0586,-0.39062 0.0586,-0.58594 0.013,-0.20833 -0.007,-0.39713 -0.0586,-0.56641 -0.0391,-0.18228 -0.13022,-0.32551 -0.27344,-0.42968 -0.13021,-0.11718 -0.31251,-0.17578 -0.54687,-0.17578 -0.31251,0 -0.66407,0.10417 -1.05469,0.3125 -0.37761,0.19532 -0.67709,0.42318 -0.89844,0.68359 -0.0911,0.10417 -0.16927,0.27344 -0.23437,0.50781 -0.0521,0.23438 -0.0911,0.41016 -0.11719,0.52735 -0.013,0.0911 -0.0326,0.21484 -0.0586,0.37109 -0.0261,0.14323 -0.0456,0.29297 -0.0586,0.44922 -0.013,0.15625 -0.026,0.30599 -0.0391,0.44922 -0.013,0.14323 -0.007,0.25391 0.0195,0.33203 0.013,0.11719 0.0716,0.22787 0.17578,0.33203 0.11718,0.0911 0.24739,0.17578 0.39063,0.25391 0.14322,0.0781 0.29296,0.13672 0.44922,0.17578 0.15624,0.0391 0.29296,0.0586 0.41015,0.0586 0.27343,0 0.51432,-0.10416 0.72266,-0.3125 0.20832,-0.20833 0.39062,-0.45572 0.54687,-0.74219 0.15625,-0.28645 0.27994,-0.57942 0.3711,-0.8789 0.0911,-0.3125 0.15624,-0.5664 0.19531,-0.76172"
           inkscape:connector-curvature="0" />
        <path
           id="path3965"
           style="font-size:20px;font-style:italic;font-weight:bold;line-height:112.99999952%;letter-spacing:1.47000003px;fill:#ffffff;font-family:Chewy;-inkscape-font-specification:Chewy Bold Italic"
           d="m -602.51065,736.84274 c -0.66407,0 -1.21094,-0.17578 -1.64063,-0.52735 -0.41667,-0.35156 -0.74219,-0.80078 -0.97656,-1.34765 -0.22136,-0.54688 -0.35156,-1.15234 -0.39063,-1.81641 -0.0391,-0.67708 0.007,-1.34114 0.13672,-1.99219 0.14323,-0.6901 0.37109,-1.39973 0.6836,-2.1289 0.32552,-0.74218 0.72265,-1.41276 1.1914,-2.01172 0.46875,-0.61197 1.01562,-1.10676 1.64063,-1.48438 0.62499,-0.39061 1.3151,-0.58592 2.07031,-0.58593 0.72916,10e-6 1.30859,0.20183 1.73828,0.60546 0.4427,0.39064 0.76171,0.88543 0.95703,1.48438 0.19531,0.58595 0.28645,1.23048 0.27344,1.93359 -0.013,0.70313 -0.10418,1.3672 -0.27344,1.99219 -0.16928,0.69011 -0.41667,1.38672 -0.74218,2.08984 -0.31251,0.70313 -0.69663,1.33464 -1.15235,1.89454 -0.44271,0.55989 -0.96355,1.01562 -1.5625,1.36718 -0.58594,0.35157 -1.23698,0.52735 -1.95312,0.52735 m 1.97265,-8.82813 c -0.19532,1e-5 -0.39063,0.10418 -0.58593,0.3125 -0.19532,0.20834 -0.3711,0.46225 -0.52735,0.76172 -0.15625,0.29949 -0.29297,0.6185 -0.41015,0.95703 -0.1172,0.32553 -0.20183,0.61199 -0.25391,0.85938 -0.0651,0.3125 -0.10417,0.65104 -0.11719,1.01562 -0.013,0.36459 0,0.70313 0.0391,1.01563 0.0521,0.29948 0.13021,0.55338 0.23438,0.76172 0.10416,0.19531 0.2539,0.29297 0.44922,0.29296 0.20833,10e-6 0.40364,-0.0977 0.58594,-0.29296 0.1953,-0.19531 0.37108,-0.44271 0.52734,-0.74219 0.15624,-0.29948 0.28645,-0.625 0.39062,-0.97656 0.11718,-0.36458 0.20182,-0.70312 0.25391,-1.01563 0.0651,-0.28645 0.10416,-0.59895 0.11719,-0.9375 0.013,-0.35156 -10e-6,-0.67708 -0.0391,-0.97656 -0.0261,-0.29947 -0.0977,-0.54687 -0.21485,-0.74219 -0.10417,-0.1953 -0.25391,-0.29296 -0.44922,-0.29297"
           inkscape:connector-curvature="0" />
        <path
           id="path3967"
           style="font-size:20px;font-style:italic;font-weight:bold;line-height:112.99999952%;letter-spacing:1.47000003px;fill:#ffffff;font-family:Chewy;-inkscape-font-specification:Chewy Bold Italic"
           d="m -589.73206,722.64352 c -0.0391,0.1823 -0.1237,0.34506 -0.2539,0.48828 -0.13022,0.14324 -0.28647,0.27345 -0.46875,0.39062 -0.16928,0.10418 -0.35157,0.18882 -0.54688,0.25391 -0.19532,0.0521 -0.3711,0.0781 -0.52734,0.0781 -0.26042,10e-6 -0.47527,-0.0651 -0.64453,-0.19532 -0.16928,-0.13019 -0.22787,-0.33202 -0.17579,-0.60547 0.0391,-0.19529 0.1237,-0.36457 0.25391,-0.50781 0.1302,-0.15623 0.27343,-0.27993 0.42969,-0.37109 0.16926,-0.10415 0.35156,-0.18228 0.54687,-0.23438 0.19531,-0.0521 0.3776,-0.0781 0.54688,-0.0781 0.24739,10e-6 0.46223,0.0586 0.64453,0.17578 0.18228,0.1172 0.24739,0.31902 0.19531,0.60547 m -1.17187,6.64062 c -0.0391,0.1823 -0.0781,0.37761 -0.11719,0.58594 -0.0391,0.19532 -0.0846,0.38412 -0.13672,0.56641 -0.0651,0.22136 -0.13672,0.52084 -0.21484,0.89843 -0.0651,0.36459 -0.15626,0.76173 -0.27344,1.19141 -0.10417,0.42969 -0.23438,0.86589 -0.39063,1.30859 -0.14323,0.44271 -0.31901,0.84636 -0.52734,1.21094 -0.19532,0.36459 -0.42318,0.66406 -0.68359,0.89844 -0.26042,0.22135 -0.55339,0.33854 -0.87891,0.35156 -0.2474,0.013 -0.4362,-0.0846 -0.56641,-0.29297 -0.13021,-0.20833 -0.22135,-0.47526 -0.27343,-0.80078 -0.0391,-0.33854 -0.0456,-0.70963 -0.0195,-1.11328 0.0391,-0.41666 0.0846,-0.8138 0.13671,-1.19141 0.0521,-0.39062 0.11068,-0.74869 0.17579,-1.07421 0.0651,-0.32552 0.11067,-0.56641 0.13671,-0.72266 0.0391,-0.20833 0.0977,-0.5013 0.17579,-0.87891 0.0781,-0.39062 0.17577,-0.80728 0.29296,-1.25 0.11719,-0.4427 0.25391,-0.89192 0.41016,-1.34765 0.16927,-0.45572 0.35807,-0.87239 0.56641,-1.25 0.20833,-0.3776 0.4427,-0.68359 0.70312,-0.91797 0.27343,-0.23437 0.57942,-0.35155 0.91797,-0.35156 0.35156,10e-6 0.58593,0.17579 0.70313,0.52734 0.11718,0.35157 0.16926,0.76173 0.15625,1.23047 -10e-6,0.46876 -0.0391,0.93751 -0.11719,1.40625 -0.0781,0.45573 -0.13673,0.79428 -0.17578,1.01562"
           inkscape:connector-curvature="0" />
        <path
           id="path3969"
           style="font-size:20px;font-style:italic;font-weight:bold;line-height:112.99999952%;letter-spacing:1.47000003px;fill:#ffffff;font-family:Chewy;-inkscape-font-specification:Chewy Bold Italic"
           d="m -585.85971,736.84274 c -0.66407,0 -1.21094,-0.17578 -1.64063,-0.52735 -0.41667,-0.35156 -0.74219,-0.80078 -0.97656,-1.34765 -0.22136,-0.54688 -0.35156,-1.15234 -0.39063,-1.81641 -0.0391,-0.67708 0.007,-1.34114 0.13672,-1.99219 0.14323,-0.6901 0.37109,-1.39973 0.6836,-2.1289 0.32551,-0.74218 0.72265,-1.41276 1.1914,-2.01172 0.46875,-0.61197 1.01562,-1.10676 1.64063,-1.48438 0.62499,-0.39061 1.3151,-0.58592 2.07031,-0.58593 0.72916,10e-6 1.30859,0.20183 1.73828,0.60546 0.4427,0.39064 0.76171,0.88543 0.95703,1.48438 0.19531,0.58595 0.28645,1.23048 0.27344,1.93359 -0.013,0.70313 -0.10418,1.3672 -0.27344,1.99219 -0.16928,0.69011 -0.41667,1.38672 -0.74218,2.08984 -0.31251,0.70313 -0.69663,1.33464 -1.15235,1.89454 -0.44271,0.55989 -0.96355,1.01562 -1.5625,1.36718 -0.58594,0.35157 -1.23698,0.52735 -1.95312,0.52735 m 1.97265,-8.82813 c -0.19532,1e-5 -0.39063,0.10418 -0.58593,0.3125 -0.19532,0.20834 -0.3711,0.46225 -0.52735,0.76172 -0.15625,0.29949 -0.29297,0.6185 -0.41015,0.95703 -0.1172,0.32553 -0.20183,0.61199 -0.25391,0.85938 -0.0651,0.3125 -0.10417,0.65104 -0.11719,1.01562 -0.013,0.36459 0,0.70313 0.0391,1.01563 0.0521,0.29948 0.13021,0.55338 0.23438,0.76172 0.10416,0.19531 0.2539,0.29297 0.44922,0.29296 0.20833,10e-6 0.40364,-0.0977 0.58594,-0.29296 0.1953,-0.19531 0.37108,-0.44271 0.52734,-0.74219 0.15624,-0.29948 0.28645,-0.625 0.39062,-0.97656 0.11718,-0.36458 0.20182,-0.70312 0.25391,-1.01563 0.0651,-0.28645 0.10416,-0.59895 0.11719,-0.9375 0.013,-0.35156 -10e-6,-0.67708 -0.0391,-0.97656 -0.0261,-0.29947 -0.0977,-0.54687 -0.21485,-0.74219 -0.10417,-0.1953 -0.25391,-0.29296 -0.44922,-0.29297"
           inkscape:connector-curvature="0" />
        <path
           id="path3971"
           style="font-size:20px;font-style:italic;font-weight:bold;line-height:112.99999952%;letter-spacing:1.47000003px;fill:#ffffff;font-family:Chewy;-inkscape-font-specification:Chewy Bold Italic"
           d="m -573.74518,728.09274 c -0.0391,0.20834 -0.11068,0.4948 -0.21484,0.85937 -0.0912,0.35157 -0.20834,0.73569 -0.35157,1.15235 -0.13021,0.40365 -0.28646,0.82031 -0.46875,1.25 -0.18229,0.41667 -0.37761,0.80078 -0.58593,1.15234 -0.19532,0.33854 -0.40365,0.61849 -0.625,0.83984 -0.22136,0.20834 -0.44923,0.31251 -0.6836,0.3125 -0.28646,10e-6 -0.50781,-0.13671 -0.66406,-0.41015 -0.14323,-0.28646 -0.24089,-0.64453 -0.29297,-1.07422 -0.0391,-0.44271 -0.0456,-0.93099 -0.0195,-1.46485 0.026,-0.53384 0.0716,-1.05468 0.13672,-1.5625 0.0651,-0.52082 0.13671,-0.99608 0.21484,-1.42578 0.0781,-0.4427 0.14323,-0.78124 0.19531,-1.01562 0.0521,-0.23437 0.11068,-0.52734 0.17579,-0.87891 0.0781,-0.36457 0.16926,-0.74868 0.27343,-1.15234 0.11719,-0.40364 0.2474,-0.80077 0.39063,-1.19141 0.15624,-0.40363 0.33854,-0.76821 0.54687,-1.09375 0.20833,-0.3255 0.44922,-0.58592 0.72266,-0.78125 0.27343,-0.20832 0.58593,-0.31248 0.9375,-0.3125 0.31249,2e-5 0.54036,0.13674 0.68359,0.41016 0.15625,0.26043 0.2539,0.60548 0.29297,1.03515 0.0391,0.41668 0.0326,0.88543 -0.0195,1.40625 -0.0391,0.52085 -0.0977,1.03517 -0.17578,1.54297 -0.0781,0.4948 -0.16277,0.95704 -0.25391,1.38672 -0.0911,0.4297 -0.16276,0.76824 -0.21484,1.01563 m -1.85547,7.42187 c -0.0521,0.22136 -0.14974,0.41667 -0.29297,0.58594 -0.13021,0.15625 -0.29297,0.28646 -0.48828,0.39062 -0.18229,0.11719 -0.37761,0.20183 -0.58594,0.25391 -0.20833,0.0521 -0.41016,0.0781 -0.60547,0.0781 -0.28646,-10e-6 -0.54687,-0.0781 -0.78125,-0.23438 -0.22135,-0.14323 -0.29948,-0.3776 -0.23437,-0.70312 0.0391,-0.19532 0.13021,-0.3711 0.27344,-0.52735 0.14322,-0.16927 0.31249,-0.3125 0.50781,-0.42969 0.19531,-0.11718 0.39713,-0.20833 0.60547,-0.27343 0.22135,-0.0651 0.42317,-0.0977 0.60547,-0.0977 0.29947,0 0.55338,0.0781 0.76172,0.23438 0.22135,0.14323 0.29947,0.38411 0.23437,0.72265"
           inkscape:connector-curvature="0" />
      </g>
    </g>
  </g>
</svg>
