<?xml version="1.0" encoding="UTF-8" standalone="no"?>
<!-- Created with Inkscape (http://www.inkscape.org/) -->

<svg
   xmlns:dc="http://purl.org/dc/elements/1.1/"
   xmlns:cc="http://creativecommons.org/ns#"
   xmlns:rdf="http://www.w3.org/1999/02/22-rdf-syntax-ns#"
   xmlns:svg="http://www.w3.org/2000/svg"
   xmlns="http://www.w3.org/2000/svg"
   xmlns:sodipodi="http://sodipodi.sourceforge.net/DTD/sodipodi-0.dtd"
   xmlns:inkscape="http://www.inkscape.org/namespaces/inkscape"
   width="180"
   height="180"
   id="svg2"
   version="1.1"
   inkscape:version="0.48.3.1 r9886"
   sodipodi:docname="vaberto_branco.svg"
   inkscape:export-filename="/home/diraol/devel/polignu/camaraws/radar_parlamentar/static/assets/votoaberto/vaberto_direita_branco.png"
   inkscape:export-xdpi="90"
   inkscape:export-ydpi="90">
  <defs
     id="defs4" />
  <sodipodi:namedview
     id="base"
     pagecolor="#ffffff"
     bordercolor="#666666"
     borderopacity="1.0"
     inkscape:pageopacity="0.0"
     inkscape:pageshadow="2"
     inkscape:zoom="1.6583334"
     inkscape:cx="46.91022"
     inkscape:cy="75.636024"
     inkscape:document-units="px"
     inkscape:current-layer="layer1"
     showgrid="false"
     inkscape:snap-bbox="true"
     inkscape:bbox-paths="true"
     inkscape:bbox-nodes="true"
     inkscape:snap-bbox-edge-midpoints="true"
     inkscape:snap-bbox-midpoints="true"
     showguides="true"
     inkscape:guide-bbox="true"
     inkscape:window-width="1280"
     inkscape:window-height="776"
     inkscape:window-x="0"
     inkscape:window-y="24"
     inkscape:window-maximized="1">
    <sodipodi:guide
       orientation="1,0"
       position="180,1000"
       id="guide3756" />
    <sodipodi:guide
       orientation="1,0"
       position="0,1000"
       id="guide3758" />
    <sodipodi:guide
       orientation="0,1"
       position="1000,0"
       id="guide3760" />
    <sodipodi:guide
       orientation="0,1"
       position="1000,180"
       id="guide3762" />
    <sodipodi:guide
       orientation="0.70710678,0.70710678"
       position="-0.43849999,180.4385"
       id="guide3764" />
    <sodipodi:guide
       orientation="0.70710678,0.70710678"
       position="69.5615,180.4385"
       id="guide3766" />
    <sodipodi:guide
       orientation="-0.70710678,0.70710678"
       position="180.4385,180.4385"
       id="guide3774" />
    <sodipodi:guide
       orientation="0.70710678,0.70710678"
       position="82.211055,137.78894"
       id="guide3776" />
  </sodipodi:namedview>
  <metadata
     id="metadata7">
    <rdf:RDF>
      <cc:Work
         rdf:about="">
        <dc:format>image/svg+xml</dc:format>
        <dc:type
           rdf:resource="http://purl.org/dc/dcmitype/StillImage" />
        <dc:title />
      </cc:Work>
    </rdf:RDF>
  </metadata>
  <g
     inkscape:groupmode="layer"
     id="layer2"
     inkscape:label="fundo" />
  <g
     inkscape:label="Texto"
     inkscape:groupmode="layer"
     id="layer1"
     transform="translate(0,-872.36218)">
    <path
       style="fill:#ffffff;fill-opacity:1;stroke:#000000;stroke-width:1.16935372;stroke-linecap:square;stroke-miterlimit:4;stroke-opacity:1;stroke-dasharray:none"
       d="m 0.5847,872.94688 69.54523,0 109.28538,109.28538 0,69.54524 z"
       id="rect2985"
       inkscape:connector-curvature="0"
       sodipodi:nodetypes="ccccc" />
    <g
       transform="matrix(0.70710678,0.70710678,-0.70710678,0.70710678,0,0)"
       style="font-size:14px;font-style:normal;font-variant:normal;font-weight:normal;font-stretch:normal;text-align:center;line-height:112.99999952%;letter-spacing:0px;word-spacing:0px;text-anchor:middle;fill:#000000;fill-opacity:1;stroke:none;font-family:DejaVu Sans;-inkscape-font-specification:DejaVu Sans"
       id="text3013">
      <path
         d="m 699.01766,573.46741 c -0.0912,0.46876 -0.25392,0.9961 -0.48828,1.58203 -0.23439,0.57293 -0.50131,1.15886 -0.80078,1.75781 -0.28647,0.59897 -0.58595,1.18491 -0.89844,1.75781 -0.31251,0.55991 -0.59246,1.06772 -0.83984,1.52344 -0.16928,0.28647 -0.35808,0.64454 -0.56641,1.07422 -0.20834,0.41667 -0.44272,0.85938 -0.70312,1.32812 -0.24741,0.46876 -0.52085,0.93751 -0.82032,1.40625 -0.28646,0.46876 -0.58594,0.89193 -0.89843,1.26954 -0.29949,0.36458 -0.61199,0.66406 -0.9375,0.89843 -0.32553,0.23438 -0.65105,0.35157 -0.97657,0.35157 -0.27344,0 -0.51432,-0.1237 -0.72265,-0.3711 -0.20834,-0.24739 -0.39063,-0.55989 -0.54688,-0.9375 -0.14323,-0.39062 -0.26693,-0.82031 -0.37109,-1.28906 -0.10417,-0.48177 -0.19532,-0.95052 -0.27344,-1.40625 -0.0651,-0.45573 -0.11719,-0.8789 -0.15625,-1.26953 -0.026,-0.39062 -0.0456,-0.6901 -0.0586,-0.89844 -0.0521,-1.01562 -0.0977,-2.03775 -0.13672,-3.06641 -0.0261,-1.04165 0.0651,-2.08332 0.27344,-3.125 0.0521,-0.2604 0.11718,-0.52733 0.19531,-0.80078 0.0911,-0.28644 0.20833,-0.54686 0.35156,-0.78125 0.15625,-0.23436 0.34505,-0.42316 0.56641,-0.5664 0.22135,-0.15624 0.5013,-0.23436 0.83984,-0.23438 0.28645,2e-5 0.51432,0.16278 0.68359,0.48828 0.18229,0.31252 0.31901,0.72267 0.41016,1.23047 0.0911,0.50783 0.15625,1.07423 0.19531,1.69922 0.0391,0.62501 0.0716,1.2435 0.0977,1.85547 0.026,0.59897 0.0456,1.16537 0.0586,1.69922 0.026,0.52084 0.0781,0.93751 0.15625,1.25 0.13021,-0.26041 0.31901,-0.63802 0.56641,-1.13281 0.24739,-0.50781 0.52734,-1.06119 0.83984,-1.66016 0.32552,-0.59895 0.67057,-1.21093 1.03516,-1.83594 0.37759,-0.63801 0.74869,-1.21092 1.11328,-1.71875 0.37759,-0.52082 0.74218,-0.94399 1.09375,-1.26953 0.35155,-0.32551 0.67707,-0.48827 0.97656,-0.48828 0.22135,10e-6 0.39062,0.0521 0.50782,0.15625 0.11717,0.10418 0.1953,0.2409 0.23437,0.41016 0.0521,0.16928 0.0716,0.35157 0.0586,0.54687 -10e-6,0.19533 -0.0195,0.38413 -0.0586,0.56641"
         style="font-size:20px;font-style:italic;font-weight:bold;line-height:112.99999952%;letter-spacing:1.47000003px;font-family:Chewy;-inkscape-font-specification:Chewy Bold Italic"
         id="path3023" />
      <path
         d="m 701.62047,586.9635 c -0.66406,0 -1.21094,-0.17578 -1.64062,-0.52734 -0.41667,-0.35156 -0.74219,-0.80078 -0.97656,-1.34766 -0.22136,-0.54687 -0.35157,-1.15234 -0.39063,-1.81641 -0.0391,-0.67707 0.007,-1.34114 0.13672,-1.99218 0.14323,-0.6901 0.37109,-1.39974 0.68359,-2.12891 0.32552,-0.74218 0.72266,-1.41275 1.19141,-2.01172 0.46875,-0.61197 1.01562,-1.10676 1.64062,-1.48437 0.625,-0.39062 1.3151,-0.58593 2.07032,-0.58594 0.72916,10e-6 1.30858,0.20183 1.73828,0.60547 0.4427,0.39063 0.76171,0.88542 0.95703,1.48437 0.1953,0.58595 0.28645,1.23048 0.27344,1.9336 -0.013,0.70313 -0.10418,1.36719 -0.27344,1.99218 -0.16928,0.69011 -0.41668,1.38673 -0.74219,2.08985 -0.31251,0.70313 -0.69662,1.33464 -1.15234,1.89453 -0.44272,0.5599 -0.96355,1.01563 -1.5625,1.36719 -0.58594,0.35156 -1.23699,0.52734 -1.95313,0.52734 m 1.97266,-8.82812 c -0.19532,0 -0.39063,0.10417 -0.58594,0.3125 -0.19532,0.20834 -0.3711,0.46224 -0.52734,0.76171 -0.15626,0.29949 -0.29297,0.6185 -0.41016,0.95704 -0.11719,0.32552 -0.20182,0.61198 -0.2539,0.85937 -0.0651,0.31251 -0.10417,0.65105 -0.11719,1.01563 -0.013,0.36458 -1e-5,0.70312 0.0391,1.01562 0.0521,0.29948 0.13021,0.55339 0.23438,0.76172 0.10416,0.19531 0.2539,0.29297 0.44921,0.29297 0.20833,0 0.40365,-0.0977 0.58594,-0.29297 0.19531,-0.19531 0.37109,-0.44271 0.52735,-0.74219 0.15624,-0.29947 0.28645,-0.62499 0.39062,-0.97656 0.11718,-0.36458 0.20182,-0.70312 0.25391,-1.01563 0.0651,-0.28645 0.10416,-0.59895 0.11718,-0.9375 0.013,-0.35155 0,-0.67707 -0.0391,-0.97656 -0.0261,-0.29947 -0.0977,-0.54687 -0.21484,-0.74219 -0.10417,-0.1953 -0.25391,-0.29296 -0.44922,-0.29296"
         style="font-size:20px;font-style:italic;font-weight:bold;line-height:112.99999952%;letter-spacing:1.47000003px;font-family:Chewy;-inkscape-font-specification:Chewy Bold Italic"
         id="path3025" />
      <path
         d="m 712.8561,587.10022 c -0.92448,0 -1.6211,-0.1237 -2.08984,-0.37109 -0.46876,-0.23438 -0.78777,-0.57292 -0.95704,-1.01563 -0.15625,-0.44271 -0.20182,-0.97656 -0.13671,-1.60156 0.0781,-0.625 0.19531,-1.32161 0.35156,-2.08985 0.11718,-0.61197 0.2539,-1.22395 0.41015,-1.83593 0.16927,-0.625 0.36458,-1.28906 0.58594,-1.99219 -0.18229,10e-6 -0.32552,0.007 -0.42969,0.0195 -0.10417,1e-5 -0.1888,1e-5 -0.2539,0 -0.41667,1e-5 -0.76172,-0.0911 -1.03516,-0.27344 -0.27344,-0.18228 -0.37109,-0.46223 -0.29297,-0.83984 0.0521,-0.23437 0.18229,-0.4427 0.39063,-0.625 0.20833,-0.18228 0.46224,-0.33853 0.76172,-0.46875 0.29947,-0.1302 0.61848,-0.23436 0.95703,-0.3125 0.33854,-0.0781 0.65104,-0.1302 0.9375,-0.15625 0.0781,-0.36457 0.18229,-0.76822 0.3125,-1.21094 0.14322,-0.44269 0.319,-0.85285 0.52734,-1.23047 0.22135,-0.39061 0.47526,-0.71613 0.76172,-0.97656 0.28645,-0.2604 0.61197,-0.39061 0.97656,-0.39062 0.20833,10e-6 0.3776,0.0651 0.50782,0.19531 0.14322,0.1172 0.24738,0.27345 0.3125,0.46875 0.0781,0.1823 0.11718,0.39064 0.11718,0.625 0,0.23439 -0.0195,0.46225 -0.0586,0.68359 -0.0521,0.26043 -0.12371,0.52736 -0.21484,0.80078 -0.0912,0.27345 -0.23439,0.61199 -0.42969,1.01563 0.23437,-0.026 0.39062,-0.039 0.46875,-0.0391 0.0781,-0.013 0.14973,-0.0195 0.21484,-0.0195 0.22135,2e-5 0.44921,0.0195 0.6836,0.0586 0.23436,0.0391 0.44269,0.10418 0.625,0.19531 0.18228,0.0912 0.319,0.21486 0.41015,0.37109 0.10416,0.14324 0.13671,0.31903 0.0977,0.52735 -0.0391,0.23438 -0.17579,0.44272 -0.41016,0.625 -0.22136,0.1823 -0.48829,0.33855 -0.80078,0.46875 -0.31251,0.13022 -0.63803,0.23438 -0.97656,0.3125 -0.33855,0.0651 -0.65756,0.11068 -0.95703,0.13672 -0.1823,0.53386 -0.33855,1.02865 -0.46875,1.48437 -0.1172,0.44272 -0.24089,0.89194 -0.3711,1.34766 -0.0651,0.22136 -0.13021,0.44922 -0.19531,0.68359 -0.0651,0.22136 -0.1237,0.44923 -0.17578,0.6836 -0.026,0.16927 -0.0586,0.37109 -0.0977,0.60546 -0.026,0.22136 -0.026,0.43621 0,0.64454 0.0391,0.20833 0.13021,0.39062 0.27344,0.54687 0.14322,0.14323 0.36458,0.21485 0.66406,0.21484 0.18229,10e-6 0.37109,-0.013 0.56641,-0.0391 0.20833,-0.0391 0.41015,-0.0586 0.60547,-0.0586 0.33853,0 0.55989,0.11719 0.66406,0.35156 0.10416,0.23438 0.11718,0.53386 0.0391,0.89844 -0.0521,0.27344 -0.1823,0.51432 -0.39062,0.72265 -0.19532,0.19532 -0.4297,0.35157 -0.70313,0.46875 -0.27344,0.13021 -0.57292,0.22787 -0.89843,0.29297 -0.31251,0.0651 -0.60548,0.0977 -0.87891,0.0977"
         style="font-size:20px;font-style:italic;font-weight:bold;line-height:112.99999952%;letter-spacing:1.47000003px;font-family:Chewy;-inkscape-font-specification:Chewy Bold Italic"
         id="path3027" />
      <path
         d="m 721.00579,586.9635 c -0.66407,0 -1.21094,-0.17578 -1.64063,-0.52734 -0.41667,-0.35156 -0.74219,-0.80078 -0.97656,-1.34766 -0.22136,-0.54687 -0.35157,-1.15234 -0.39063,-1.81641 -0.0391,-0.67707 0.007,-1.34114 0.13672,-1.99218 0.14323,-0.6901 0.37109,-1.39974 0.6836,-2.12891 0.32551,-0.74218 0.72265,-1.41275 1.1914,-2.01172 0.46875,-0.61197 1.01562,-1.10676 1.64063,-1.48437 0.62499,-0.39062 1.3151,-0.58593 2.07031,-0.58594 0.72916,10e-6 1.30859,0.20183 1.73828,0.60547 0.4427,0.39063 0.76171,0.88542 0.95703,1.48437 0.1953,0.58595 0.28645,1.23048 0.27344,1.9336 -0.013,0.70313 -0.10418,1.36719 -0.27344,1.99218 -0.16928,0.69011 -0.41667,1.38673 -0.74219,2.08985 -0.3125,0.70313 -0.69662,1.33464 -1.15234,1.89453 -0.44271,0.5599 -0.96355,1.01563 -1.5625,1.36719 -0.58594,0.35156 -1.23698,0.52734 -1.95312,0.52734 m 1.97265,-8.82812 c -0.19532,0 -0.39063,0.10417 -0.58594,0.3125 -0.19531,0.20834 -0.37109,0.46224 -0.52734,0.76171 -0.15625,0.29949 -0.29297,0.6185 -0.41016,0.95704 -0.11719,0.32552 -0.20182,0.61198 -0.2539,0.85937 -0.0651,0.31251 -0.10417,0.65105 -0.11719,1.01563 -0.013,0.36458 0,0.70312 0.0391,1.01562 0.0521,0.29948 0.13021,0.55339 0.23438,0.76172 0.10416,0.19531 0.2539,0.29297 0.44922,0.29297 0.20833,0 0.40364,-0.0977 0.58593,-0.29297 0.19531,-0.19531 0.37109,-0.44271 0.52735,-0.74219 0.15624,-0.29947 0.28645,-0.62499 0.39062,-0.97656 0.11718,-0.36458 0.20182,-0.70312 0.25391,-1.01563 0.0651,-0.28645 0.10416,-0.59895 0.11719,-0.9375 0.013,-0.35155 -10e-6,-0.67707 -0.0391,-0.97656 -0.026,-0.29947 -0.0977,-0.54687 -0.21484,-0.74219 -0.10417,-0.1953 -0.25391,-0.29296 -0.44922,-0.29296"
         style="font-size:20px;font-style:italic;font-weight:bold;line-height:112.99999952%;letter-spacing:1.47000003px;font-family:Chewy;-inkscape-font-specification:Chewy Bold Italic"
         id="path3029" />
      <path
         d="m 744.47313,583.50647 c -0.0521,0.26042 -0.14324,0.57292 -0.27344,0.9375 -0.1172,0.36458 -0.27345,0.71615 -0.46875,1.05469 -0.19532,0.32552 -0.4297,0.60547 -0.70312,0.83984 -0.26043,0.22135 -0.57293,0.33203 -0.9375,0.33203 -0.48178,0 -0.8073,-0.17578 -0.97657,-0.52734 -0.16928,-0.35156 -0.26042,-0.76823 -0.27343,-1.25 -10e-6,-0.49479 0.039,-0.99609 0.11718,-1.50391 0.0911,-0.50781 0.15625,-0.91145 0.19532,-1.21094 -0.96355,0.15626 -1.91407,0.29298 -2.85157,0.41016 -0.0911,0.29948 -0.22136,0.67058 -0.39062,1.11328 -0.16928,0.44271 -0.38412,0.8724 -0.64453,1.28906 -0.26042,0.40365 -0.5599,0.75521 -0.89844,1.05469 -0.33854,0.29948 -0.70964,0.44922 -1.11328,0.44922 -0.3125,0 -0.53386,-0.11068 -0.66406,-0.33203 -0.13021,-0.23437 -0.20834,-0.50781 -0.23438,-0.82031 -0.026,-0.3125 -0.0195,-0.63151 0.0195,-0.95703 0.0521,-0.33854 0.0977,-0.61849 0.13672,-0.83985 0.15625,-0.74218 0.36458,-1.47135 0.625,-2.1875 0.26042,-0.72916 0.54036,-1.45181 0.83984,-2.16797 0.15625,-0.37759 0.34505,-0.8203 0.56641,-1.32812 0.23437,-0.5078 0.5013,-1.02864 0.80078,-1.5625 0.29948,-0.54687 0.625,-1.08072 0.97656,-1.60156 0.36458,-0.53385 0.7487,-1.00911 1.15235,-1.42579 0.41666,-0.41665 0.85937,-0.75519 1.32812,-1.01562 0.46875,-0.2604 0.95703,-0.39061 1.46485,-0.39063 0.49478,2e-5 0.89842,0.1107 1.21093,0.33204 0.32551,0.22136 0.58593,0.51433 0.78125,0.8789 0.20833,0.3646 0.35807,0.78126 0.44922,1.25 0.0911,0.45574 0.14973,0.92449 0.17578,1.40625 0.026,0.46876 0.0326,0.931 0.0195,1.38672 -2e-5,0.45574 -2e-5,0.85938 0,1.21094 -2e-5,0.84636 -0.0326,1.70573 -0.0977,2.57812 -0.0521,0.85938 -0.16277,1.72527 -0.33203,2.59766 m -2.83203,-4.74609 c 0.039,-0.15625 0.0846,-0.41015 0.13672,-0.76172 0.0521,-0.36458 0.0781,-0.72265 0.0781,-1.07422 0.013,-0.36458 -0.0261,-0.68359 -0.11719,-0.95703 -0.0781,-0.28645 -0.23438,-0.42968 -0.46875,-0.42969 -0.13021,10e-6 -0.27344,0.0912 -0.42968,0.27344 -0.14324,0.16928 -0.28647,0.39063 -0.42969,0.66406 -0.14324,0.26043 -0.28647,0.55339 -0.42969,0.87891 -0.13021,0.32553 -0.25391,0.63803 -0.37109,0.9375 -0.1172,0.29948 -0.21485,0.57292 -0.29297,0.82031 -0.0651,0.23438 -0.1172,0.40365 -0.15625,0.50781 0.79426,-0.0651 1.58202,-0.16275 2.36328,-0.29297 l 0.11719,-0.5664"
         style="font-size:20px;font-style:italic;font-weight:bold;line-height:112.99999952%;letter-spacing:1.47000003px;font-family:Chewy;-inkscape-font-specification:Chewy Bold Italic"
         id="path3031" />
      <path
         d="m 757.15407,579.95178 c -0.0781,0.37761 -0.19533,0.8073 -0.35157,1.28906 -0.14324,0.46876 -0.33204,0.95053 -0.5664,1.44532 -0.22137,0.49479 -0.48178,0.97656 -0.78125,1.44531 -0.28647,0.46875 -0.61199,0.89193 -0.97656,1.26953 -0.3646,0.36458 -0.76173,0.65755 -1.19141,0.87891 -0.42969,0.22135 -0.89844,0.33203 -1.40625,0.33203 -0.53386,0 -0.9961,-0.1237 -1.38672,-0.3711 -0.39063,-0.24739 -0.69662,-0.58593 -0.91797,-1.01562 -0.10417,0.35156 -0.3125,0.66406 -0.625,0.9375 -0.29948,0.26042 -0.63802,0.39062 -1.01562,0.39062 -0.22136,0 -0.38412,-0.11067 -0.48828,-0.33203 -0.10417,-0.22135 -0.16928,-0.5013 -0.19532,-0.83984 -0.013,-0.35156 0,-0.73568 0.0391,-1.15234 0.0391,-0.41667 0.0911,-0.82031 0.15625,-1.21094 0.0651,-0.39062 0.12369,-0.74218 0.17578,-1.05469 0.0651,-0.31249 0.11067,-0.53385 0.13672,-0.66406 0.0911,-0.4427 0.18229,-0.88541 0.27343,-1.32813 0.10417,-0.4427 0.20833,-0.89192 0.3125,-1.34765 0.0391,-0.22135 0.0977,-0.55338 0.17578,-0.9961 0.0911,-0.4427 0.19531,-0.93098 0.3125,-1.46484 0.11719,-0.54686 0.25391,-1.10025 0.41016,-1.66016 0.16927,-0.5729 0.35807,-1.09373 0.56641,-1.5625 0.20833,-0.46873 0.4427,-0.85285 0.70312,-1.15234 0.27343,-0.29946 0.57291,-0.45571 0.89844,-0.46875 0.26041,10e-6 0.46223,0.0912 0.60547,0.27344 0.15624,0.1823 0.26692,0.42319 0.33203,0.72265 0.0651,0.2995 0.0911,0.63804 0.0781,1.01563 0,0.36459 -0.0195,0.73569 -0.0586,1.11328 -0.0391,0.36459 -0.0912,0.71616 -0.15625,1.05469 -0.0521,0.32553 -0.10417,0.59246 -0.15625,0.80078 -10e-6,0.0391 -0.0195,0.13022 -0.0586,0.27344 -0.0261,0.13021 -0.0586,0.27344 -0.0977,0.42968 -0.0261,0.15626 -0.0521,0.29949 -0.0781,0.42969 -0.0261,0.1172 -0.0391,0.1823 -0.0391,0.19531 0.16927,-0.24738 0.38411,-0.48827 0.64453,-0.72265 0.27344,-0.23437 0.55989,-0.4427 0.85938,-0.625 0.31249,-0.18228 0.6315,-0.33202 0.95703,-0.44922 0.32551,-0.11718 0.62499,-0.17577 0.89844,-0.17578 0.54686,10e-6 0.97655,0.14324 1.28906,0.42968 0.31249,0.27345 0.53384,0.62501 0.66406,1.05469 0.14322,0.4297 0.20833,0.89845 0.19532,1.40625 -2e-5,0.4948 -0.0456,0.96355 -0.13672,1.40625 m -2.98828,0.58594 c 0.026,-0.15624 0.0456,-0.32551 0.0586,-0.50781 0.026,-0.18229 0.0195,-0.35156 -0.0195,-0.50782 -0.0391,-0.15624 -0.11069,-0.28645 -0.21485,-0.39062 -0.10417,-0.10416 -0.25391,-0.15624 -0.44921,-0.15625 -0.20834,10e-6 -0.42319,0.0456 -0.64454,0.13672 -0.22136,0.0911 -0.4362,0.20834 -0.64453,0.35156 -0.20834,0.14324 -0.41016,0.29949 -0.60547,0.46875 -0.18229,0.15626 -0.35156,0.31251 -0.50781,0.46875 l -0.52734,1.73828 c 0.14322,0.29949 0.34505,0.54037 0.60547,0.72266 0.27343,0.16927 0.59895,0.25391 0.97656,0.2539 0.28645,10e-6 0.54036,-0.0911 0.76172,-0.27343 0.22135,-0.18229 0.41015,-0.40364 0.5664,-0.66407 0.16927,-0.27343 0.30599,-0.55989 0.41016,-0.85937 0.11718,-0.29947 0.19531,-0.55989 0.23438,-0.78125"
         style="font-size:20px;font-style:italic;font-weight:bold;line-height:112.99999952%;letter-spacing:1.47000003px;font-family:Chewy;-inkscape-font-specification:Chewy Bold Italic"
         id="path3033" />
      <path
         d="m 767.41313,582.92053 c -0.0911,0.44271 -0.31902,0.87891 -0.68359,1.3086 -0.36459,0.41666 -0.79428,0.79427 -1.28907,1.13281 -0.48177,0.32552 -0.98959,0.59245 -1.52343,0.80078 -0.52084,0.19531 -0.98308,0.29297 -1.38672,0.29297 -0.69011,0 -1.26954,-0.16927 -1.73828,-0.50781 -0.46876,-0.35157 -0.83334,-0.79427 -1.09375,-1.32813 -0.26042,-0.53385 -0.42318,-1.11979 -0.48828,-1.75781 -0.0521,-0.65104 -0.013,-1.28255 0.11718,-1.89453 0.13021,-0.65104 0.35807,-1.34765 0.6836,-2.08985 0.32552,-0.74218 0.73567,-1.42577 1.23047,-2.05078 0.5078,-0.62499 1.08072,-1.14582 1.71875,-1.5625 0.65103,-0.41665 1.36718,-0.62499 2.14843,-0.625 0.4427,10e-6 0.85286,0.0781 1.23047,0.23438 0.3776,0.14324 0.68359,0.35157 0.91797,0.625 0.24739,0.27345 0.42317,0.59897 0.52734,0.97656 0.11718,0.37761 0.1302,0.80079 0.0391,1.26953 -0.13022,0.61199 -0.37762,1.1849 -0.74219,1.71875 -0.36459,0.53386 -0.80079,0.9961 -1.30859,1.38672 -0.50782,0.39063 -1.06772,0.70964 -1.67969,0.95703 -0.61199,0.23438 -1.21094,0.36459 -1.79688,0.39063 -0.026,0.3776 0.0716,0.65104 0.29297,0.82031 0.22135,0.16927 0.50781,0.25391 0.85938,0.2539 0.26041,10e-6 0.52733,-0.0651 0.80078,-0.19531 0.27343,-0.1302 0.54036,-0.27343 0.80078,-0.42969 0.27343,-0.16926 0.53385,-0.319 0.78125,-0.44921 0.26041,-0.13021 0.5078,-0.19531 0.74219,-0.19532 0.2604,10e-6 0.47525,0.0846 0.64453,0.25391 0.18228,0.16927 0.24738,0.39063 0.19531,0.66406 m -2.20703,-4.78515 c 0.026,-0.16927 0.013,-0.34505 -0.0391,-0.52735 -0.0521,-0.18228 -0.17579,-0.27343 -0.3711,-0.27344 -0.28646,10e-6 -0.54688,0.0781 -0.78125,0.23438 -0.22136,0.14324 -0.42318,0.33204 -0.60547,0.56641 -0.16927,0.22136 -0.31901,0.46224 -0.44921,0.72265 -0.1172,0.26043 -0.20183,0.50131 -0.25391,0.72266 0.18229,-0.0391 0.40364,-0.0911 0.66406,-0.15625 0.27343,-0.0651 0.53385,-0.14973 0.78125,-0.25391 0.26041,-0.11718 0.48828,-0.26041 0.6836,-0.42969 0.1953,-0.16926 0.319,-0.37108 0.37109,-0.60546"
         style="font-size:20px;font-style:italic;font-weight:bold;line-height:112.99999952%;letter-spacing:1.47000003px;font-family:Chewy;-inkscape-font-specification:Chewy Bold Italic"
         id="path3035" />
      <path
         d="m 777.22298,579.09241 c -0.1823,0.013 -0.33855,0 -0.46875,-0.0391 -0.1172,-0.0521 -0.23439,-0.10415 -0.35157,-0.15625 -0.10417,-0.0521 -0.21485,-0.0976 -0.33203,-0.13671 -0.10417,-0.0521 -0.22787,-0.0716 -0.37109,-0.0586 -0.26043,0.013 -0.50782,0.0847 -0.74219,0.21485 -0.22136,0.13021 -0.4362,0.29297 -0.64453,0.48828 -0.19532,0.19532 -0.37761,0.41667 -0.54688,0.66406 -0.16927,0.23438 -0.30599,0.46876 -0.41015,0.70312 -0.0781,0.15626 -0.16277,0.39715 -0.25391,0.72266 -0.0781,0.31251 -0.14974,0.65105 -0.21484,1.01563 -0.0911,0.3776 -0.16928,0.73568 -0.23438,1.07421 -0.0651,0.33855 -0.13021,0.60548 -0.19531,0.80079 -0.0651,0.20833 -0.14974,0.45573 -0.25391,0.74218 -0.10417,0.27344 -0.24088,0.53386 -0.41015,0.78125 -0.15626,0.2474 -0.34506,0.45573 -0.56641,0.625 -0.20833,0.16927 -0.45573,0.25391 -0.74219,0.25391 -0.22135,0 -0.40364,-0.0651 -0.54687,-0.19531 -0.13021,-0.13021 -0.22787,-0.29948 -0.29297,-0.50782 -0.0651,-0.22135 -0.11068,-0.47525 -0.13672,-0.76171 -0.013,-0.28646 -0.007,-0.57943 0.0195,-0.87891 0.026,-0.3125 0.0586,-0.625 0.0977,-0.9375 0.0391,-0.3125 0.0846,-0.60547 0.13672,-0.87891 0.0521,-0.28645 0.10416,-0.54687 0.15625,-0.78125 0.0521,-0.23437 0.0911,-0.42317 0.11719,-0.5664 0.0781,-0.45573 0.14973,-0.91146 0.21484,-1.36719 0.0651,-0.46874 0.14323,-0.93098 0.23437,-1.38672 0.0521,-0.28645 0.1237,-0.60546 0.21485,-0.95703 0.10416,-0.35155 0.24088,-0.67707 0.41015,-0.97656 0.18229,-0.31249 0.41016,-0.57291 0.6836,-0.78125 0.27343,-0.20833 0.61197,-0.31249 1.01562,-0.3125 0.22135,10e-6 0.39062,0.0716 0.50782,0.21484 0.1302,0.14324 0.22134,0.31902 0.27343,0.52734 0.0651,0.20835 0.0977,0.4297 0.0977,0.66407 0.013,0.23438 0.006,0.44923 -0.0195,0.64453 0.40364,-0.5078 0.83333,-0.91796 1.28906,-1.23047 0.45572,-0.32551 1.0026,-0.50129 1.64063,-0.52734 0.31249,-0.013 0.61197,0.0195 0.89843,0.0976 0.29947,0.0651 0.55989,0.1823 0.78125,0.35156 0.22135,0.15626 0.38411,0.3646 0.48828,0.625 0.11718,0.26043 0.14322,0.56642 0.0781,0.91797 -0.0521,0.41668 -0.2409,0.73569 -0.56641,0.95703 -0.31251,0.22137 -0.66407,0.33855 -1.05468,0.35157"
         style="font-size:20px;font-style:italic;font-weight:bold;line-height:112.99999952%;letter-spacing:1.47000003px;font-family:Chewy;-inkscape-font-specification:Chewy Bold Italic"
         id="path3037" />
      <path
         d="m 783.30235,587.10022 c -0.92448,0 -1.6211,-0.1237 -2.08984,-0.37109 -0.46875,-0.23438 -0.78776,-0.57292 -0.95703,-1.01563 -0.15625,-0.44271 -0.20183,-0.97656 -0.13672,-1.60156 0.0781,-0.625 0.19531,-1.32161 0.35156,-2.08985 0.11719,-0.61197 0.2539,-1.22395 0.41016,-1.83593 0.16926,-0.625 0.36458,-1.28906 0.58593,-1.99219 -0.18229,10e-6 -0.32552,0.007 -0.42968,0.0195 -0.10417,1e-5 -0.18881,1e-5 -0.25391,0 -0.41667,1e-5 -0.76172,-0.0911 -1.03516,-0.27344 -0.27343,-0.18228 -0.37109,-0.46223 -0.29296,-0.83984 0.0521,-0.23437 0.18229,-0.4427 0.39062,-0.625 0.20833,-0.18228 0.46224,-0.33853 0.76172,-0.46875 0.29948,-0.1302 0.61849,-0.23436 0.95703,-0.3125 0.33854,-0.0781 0.65104,-0.1302 0.9375,-0.15625 0.0781,-0.36457 0.18229,-0.76822 0.3125,-1.21094 0.14323,-0.44269 0.31901,-0.85285 0.52734,-1.23047 0.22135,-0.39061 0.47526,-0.71613 0.76172,-0.97656 0.28646,-0.2604 0.61198,-0.39061 0.97657,-0.39062 0.20832,10e-6 0.37759,0.0651 0.50781,0.19531 0.14322,0.1172 0.24739,0.27345 0.3125,0.46875 0.0781,0.1823 0.11718,0.39064 0.11719,0.625 -10e-6,0.23439 -0.0195,0.46225 -0.0586,0.68359 -0.0521,0.26043 -0.1237,0.52736 -0.21484,0.80078 -0.0912,0.27345 -0.23438,0.61199 -0.42969,1.01563 0.23437,-0.026 0.39062,-0.039 0.46875,-0.0391 0.0781,-0.013 0.14973,-0.0195 0.21484,-0.0195 0.22135,2e-5 0.44921,0.0195 0.6836,0.0586 0.23436,0.0391 0.4427,0.10418 0.625,0.19531 0.18228,0.0912 0.319,0.21486 0.41015,0.37109 0.10416,0.14324 0.13671,0.31903 0.0977,0.52735 -0.0391,0.23438 -0.17579,0.44272 -0.41016,0.625 -0.22136,0.1823 -0.48829,0.33855 -0.80078,0.46875 -0.3125,0.13022 -0.63803,0.23438 -0.97656,0.3125 -0.33855,0.0651 -0.65756,0.11068 -0.95703,0.13672 -0.1823,0.53386 -0.33855,1.02865 -0.46875,1.48437 -0.11719,0.44272 -0.24089,0.89194 -0.37109,1.34766 -0.0651,0.22136 -0.13022,0.44922 -0.19532,0.68359 -0.0651,0.22136 -0.1237,0.44923 -0.17578,0.6836 -0.026,0.16927 -0.0586,0.37109 -0.0977,0.60546 -0.0261,0.22136 -0.0261,0.43621 0,0.64454 0.039,0.20833 0.1302,0.39062 0.27343,0.54687 0.14323,0.14323 0.36458,0.21485 0.66407,0.21484 0.18228,10e-6 0.37108,-0.013 0.5664,-0.0391 0.20833,-0.0391 0.41015,-0.0586 0.60547,-0.0586 0.33853,0 0.55989,0.11719 0.66406,0.35156 0.10416,0.23438 0.11718,0.53386 0.0391,0.89844 -0.0521,0.27344 -0.1823,0.51432 -0.39063,0.72265 -0.19532,0.19532 -0.42969,0.35157 -0.70312,0.46875 -0.27345,0.13021 -0.57293,0.22787 -0.89844,0.29297 -0.31251,0.0651 -0.60548,0.0977 -0.87891,0.0977"
         style="font-size:20px;font-style:italic;font-weight:bold;line-height:112.99999952%;letter-spacing:1.47000003px;font-family:Chewy;-inkscape-font-specification:Chewy Bold Italic"
         id="path3039" />
      <path
         d="m 791.45203,586.9635 c -0.66406,0 -1.21094,-0.17578 -1.64062,-0.52734 -0.41667,-0.35156 -0.74219,-0.80078 -0.97656,-1.34766 -0.22136,-0.54687 -0.35157,-1.15234 -0.39063,-1.81641 -0.0391,-0.67707 0.007,-1.34114 0.13672,-1.99218 0.14323,-0.6901 0.37109,-1.39974 0.68359,-2.12891 0.32552,-0.74218 0.72266,-1.41275 1.19141,-2.01172 0.46875,-0.61197 1.01562,-1.10676 1.64062,-1.48437 0.625,-0.39062 1.3151,-0.58593 2.07032,-0.58594 0.72916,10e-6 1.30858,0.20183 1.73828,0.60547 0.4427,0.39063 0.76171,0.88542 0.95703,1.48437 0.1953,0.58595 0.28645,1.23048 0.27344,1.9336 -0.013,0.70313 -0.10418,1.36719 -0.27344,1.99218 -0.16928,0.69011 -0.41668,1.38673 -0.74219,2.08985 -0.31251,0.70313 -0.69662,1.33464 -1.15234,1.89453 -0.44272,0.5599 -0.96355,1.01563 -1.5625,1.36719 -0.58595,0.35156 -1.23699,0.52734 -1.95313,0.52734 m 1.97266,-8.82812 c -0.19532,0 -0.39063,0.10417 -0.58594,0.3125 -0.19532,0.20834 -0.3711,0.46224 -0.52734,0.76171 -0.15626,0.29949 -0.29298,0.6185 -0.41016,0.95704 -0.11719,0.32552 -0.20183,0.61198 -0.2539,0.85937 -0.0651,0.31251 -0.10418,0.65105 -0.11719,1.01563 -0.013,0.36458 -10e-6,0.70312 0.0391,1.01562 0.0521,0.29948 0.1302,0.55339 0.23438,0.76172 0.10416,0.19531 0.2539,0.29297 0.44921,0.29297 0.20833,0 0.40364,-0.0977 0.58594,-0.29297 0.19531,-0.19531 0.37109,-0.44271 0.52735,-0.74219 0.15624,-0.29947 0.28645,-0.62499 0.39062,-0.97656 0.11718,-0.36458 0.20182,-0.70312 0.25391,-1.01563 0.0651,-0.28645 0.10416,-0.59895 0.11718,-0.9375 0.013,-0.35155 0,-0.67707 -0.0391,-0.97656 -0.0261,-0.29947 -0.0977,-0.54687 -0.21484,-0.74219 -0.10418,-0.1953 -0.25391,-0.29296 -0.44922,-0.29296"
         style="font-size:20px;font-style:italic;font-weight:bold;line-height:112.99999952%;letter-spacing:1.47000003px;font-family:Chewy;-inkscape-font-specification:Chewy Bold Italic"
         id="path3041" />
      <path
         d="m 802.25797,580.67444 c -0.0391,0.16927 -0.11068,0.32552 -0.21484,0.46875 -0.10417,0.13021 -0.22787,0.24089 -0.3711,0.33203 -0.14323,0.0911 -0.29948,0.16276 -0.46875,0.21484 -0.15625,0.0521 -0.3125,0.0781 -0.46875,0.0781 -0.19531,0 -0.39713,-0.0326 -0.60546,-0.0977 -0.20834,-0.0781 -0.39714,-0.17577 -0.56641,-0.29297 -0.16927,-0.1302 -0.29948,-0.27994 -0.39063,-0.44922 -0.0911,-0.18228 -0.11718,-0.3841 -0.0781,-0.60546 0.0781,-0.36458 0.27995,-0.63151 0.60547,-0.80079 0.33854,-0.18228 0.66406,-0.27343 0.97656,-0.27343 0.19531,0 0.39062,0.0326 0.58594,0.0977 0.20833,0.0651 0.39062,0.16277 0.54687,0.29297 0.16927,0.1172 0.29297,0.26694 0.3711,0.44922 0.0911,0.16928 0.11718,0.36459 0.0781,0.58594 m -0.95703,4.78515 c -0.0391,0.16928 -0.11068,0.32553 -0.21484,0.46875 -0.10417,0.13021 -0.22787,0.24089 -0.3711,0.33204 -0.14323,0.0911 -0.29948,0.16276 -0.46875,0.21484 -0.15625,0.0521 -0.3125,0.0781 -0.46875,0.0781 -0.19531,0 -0.39713,-0.0391 -0.60547,-0.11718 -0.20833,-0.0651 -0.39713,-0.16276 -0.5664,-0.29297 -0.15625,-0.13021 -0.28646,-0.27995 -0.39063,-0.44922 -0.0911,-0.18229 -0.11719,-0.38411 -0.0781,-0.60547 0.0781,-0.35156 0.27995,-0.61198 0.60547,-0.78125 0.33854,-0.18229 0.66406,-0.27343 0.97656,-0.27344 0.19531,10e-6 0.39062,0.0326 0.58594,0.0977 0.20833,0.0651 0.39062,0.16276 0.54687,0.29297 0.16927,0.11719 0.29297,0.26693 0.3711,0.44922 0.0911,0.16927 0.11718,0.36458 0.0781,0.58593"
         style="font-size:20px;font-style:italic;font-weight:bold;line-height:112.99999952%;letter-spacing:1.47000003px;font-family:Chewy;-inkscape-font-specification:Chewy Bold Italic"
         id="path3043" />
      <path
         d="m 711.45704,605.93069 c -0.0391,0.2474 -0.14975,0.48828 -0.33204,0.72265 -0.16928,0.22136 -0.52735,0.48178 -1.07421,0.78125 -0.54689,0.29949 -1.13933,0.58594 -1.77735,0.85938 -0.63802,0.26042 -1.25,0.48828 -1.83594,0.68359 -0.58594,0.18229 -1.00911,0.27344 -1.26953,0.27344 -0.18229,0 -0.39062,-0.0456 -0.625,-0.13672 -0.22135,-0.0781 -0.44271,-0.18229 -0.66406,-0.3125 -0.22136,-0.13021 -0.41667,-0.27995 -0.58594,-0.44922 -0.16927,-0.16927 -0.27995,-0.33203 -0.33203,-0.48828 -0.0391,-0.0911 -0.0586,-0.27343 -0.0586,-0.54687 0.013,-0.27344 0.0391,-0.59245 0.0781,-0.95703 0.0521,-0.36458 0.10417,-0.7487 0.15625,-1.15235 0.0521,-0.41666 0.10417,-0.80728 0.15625,-1.17187 0.0651,-0.3776 0.11719,-0.70963 0.15625,-0.9961 0.0521,-0.28645 0.0912,-0.49478 0.11719,-0.625 0.10417,-0.48176 0.23437,-1.03515 0.39063,-1.66015 0.15624,-0.62499 0.33854,-1.24999 0.54687,-1.875 0.22135,-0.63801 0.47526,-1.24348 0.76172,-1.81641 0.29948,-0.58592 0.63802,-1.08072 1.01562,-1.48437 0.11719,-0.11718 0.32552,-0.24088 0.625,-0.3711 0.29948,-0.13019 0.64453,-0.25389 1.03516,-0.37109 0.40364,-0.11717 0.82682,-0.22785 1.26953,-0.33203 0.45572,-0.10415 0.88541,-0.18879 1.28906,-0.25391 0.41666,-0.0781 0.79427,-0.1367 1.13282,-0.17578 0.33853,-0.0521 0.59243,-0.0781 0.76172,-0.0781 0.1953,2e-5 0.37108,0.0456 0.52734,0.13672 0.15624,0.0781 0.27994,0.18882 0.37109,0.33203 0.10416,0.14325 0.16926,0.30601 0.19532,0.48829 0.039,0.16928 0.039,0.35157 0,0.54687 -0.0261,0.16929 -0.0781,0.31251 -0.15625,0.42969 -0.0651,0.1172 -0.15627,0.24741 -0.27344,0.39062 -0.16928,0.16929 -0.48829,0.37111 -0.95703,0.60547 -0.45574,0.23439 -0.95053,0.46876 -1.48438,0.70313 -0.53386,0.22136 -1.04818,0.42319 -1.54297,0.60547 -0.48177,0.1823 -0.82032,0.31251 -1.01562,0.39062 -0.10417,0.29949 -0.22136,0.60548 -0.35156,0.91797 -0.1172,0.29949 -0.22136,0.60548 -0.3125,0.91797 0.45572,-0.20833 0.95051,-0.40364 1.48437,-0.58594 0.54687,-0.18228 1.04817,-0.27343 1.50391,-0.27344 0.92447,10e-6 1.29556,0.45574 1.11328,1.36719 -0.0391,0.22136 -0.1172,0.41668 -0.23438,0.58594 -0.11719,0.16928 -0.26042,0.31902 -0.42968,0.44922 -0.15626,0.13021 -0.33204,0.2474 -0.52735,0.35156 -0.19532,0.0912 -0.39063,0.1823 -0.58594,0.27344 -0.45573,0.22136 -0.93099,0.41667 -1.42578,0.58593 -0.48177,0.15626 -0.97005,0.31251 -1.46484,0.46875 -0.0391,0.10418 -0.0846,0.22136 -0.13672,0.35157 -0.0521,0.11719 -0.0911,0.23438 -0.11719,0.35156 -0.0391,0.1823 -0.0651,0.36459 -0.0781,0.54687 -10e-6,0.1823 -0.007,0.36459 -0.0195,0.54688 0.16926,-0.0521 0.43619,-0.13672 0.80078,-0.25391 0.36458,-0.11718 0.74869,-0.23437 1.15234,-0.35156 0.40364,-0.11718 0.78776,-0.21484 1.15235,-0.29297 0.37759,-0.0911 0.65103,-0.13671 0.82031,-0.13672 0.1953,10e-6 0.36457,0.0456 0.50781,0.13672 0.15624,0.0781 0.27994,0.18881 0.37109,0.33203 0.0911,0.13022 0.14973,0.28647 0.17579,0.46875 0.039,0.1823 0.039,0.36459 0,0.54688"
         style="font-size:20px;font-style:italic;font-weight:bold;line-height:112.99999952%;letter-spacing:1.47000003px;font-family:Chewy;-inkscape-font-specification:Chewy Bold Italic"
         id="path3045" />
      <path
         d="m 722.88797,603.41116 c -0.14324,0.71615 -0.35808,1.42578 -0.64453,2.1289 -0.27344,0.70313 -0.63803,1.33464 -1.09375,1.89453 -0.44271,0.54688 -0.98308,0.98959 -1.62109,1.32813 -0.63803,0.33854 -1.38022,0.50781 -2.22656,0.50781 -0.83334,0 -1.4974,-0.16276 -1.99219,-0.48828 -0.4948,-0.33854 -0.85287,-0.78125 -1.07422,-1.32812 -0.22136,-0.54688 -0.33203,-1.16537 -0.33203,-1.85547 0,-0.6901 0.0716,-1.39323 0.21484,-2.10938 0.15625,-0.78124 0.40365,-1.55598 0.74219,-2.32422 0.0781,-0.20832 0.20833,-0.49478 0.39063,-0.85937 0.1953,-0.3776 0.41666,-0.74218 0.66406,-1.09375 0.24739,-0.36457 0.50781,-0.67707 0.78125,-0.9375 0.28645,-0.26041 0.5664,-0.39062 0.83984,-0.39063 0.26041,10e-6 0.44921,0.0716 0.56641,0.21485 0.1302,0.14324 0.22135,0.32553 0.27344,0.54687 0.0521,0.20835 0.0651,0.43621 0.0391,0.6836 -0.026,0.23438 -0.0586,0.44922 -0.0977,0.64453 -0.0521,0.29949 -0.13021,0.59245 -0.23437,0.8789 -0.10418,0.28647 -0.20834,0.57293 -0.3125,0.85938 -0.13022,0.39063 -0.26043,0.78125 -0.39063,1.17187 -0.11719,0.39063 -0.21485,0.78126 -0.29297,1.17188 -0.0391,0.19532 -0.0781,0.41667 -0.11718,0.66406 -0.0261,0.23438 -0.0261,0.46224 0,0.68359 0.039,0.22136 0.11718,0.41016 0.23437,0.56641 0.11718,0.14323 0.30598,0.21485 0.56641,0.21484 0.33853,1e-5 0.62499,-0.0911 0.85937,-0.27343 0.23437,-0.18229 0.42968,-0.41016 0.58594,-0.6836 0.15624,-0.27343 0.27343,-0.5664 0.35156,-0.8789 0.0911,-0.3125 0.16275,-0.59896 0.21485,-0.85938 0.11718,-0.57291 0.18879,-1.1328 0.21484,-1.67969 0.039,-0.55988 0.0846,-1.12629 0.13672,-1.69921 -10e-6,-0.0651 0.013,-0.15625 0.0391,-0.27344 0.039,-0.1953 0.11067,-0.39062 0.21484,-0.58594 0.10416,-0.1953 0.22786,-0.37108 0.3711,-0.52734 0.15624,-0.15624 0.32551,-0.27994 0.50781,-0.3711 0.1953,-0.10415 0.39713,-0.15624 0.60547,-0.15625 0.28645,10e-6 0.51431,0.10418 0.68359,0.3125 0.18228,0.19533 0.319,0.45574 0.41016,0.78125 0.0911,0.31251 0.14322,0.67059 0.15625,1.07422 0.013,0.39064 0.013,0.78126 0,1.17188 -0.013,0.37761 -0.0456,0.73568 -0.0977,1.07422 -0.0521,0.33854 -0.0977,0.60547 -0.13672,0.80078"
         style="font-size:20px;font-style:italic;font-weight:bold;line-height:112.99999952%;letter-spacing:1.47000003px;font-family:Chewy;-inkscape-font-specification:Chewy Bold Italic"
         id="path3047" />
      <path
         d="m 741.10141,606.10647 c -0.0521,0.26042 -0.14324,0.57292 -0.27344,0.9375 -0.11719,0.36458 -0.27344,0.71615 -0.46875,1.05469 -0.19532,0.32552 -0.42969,0.60547 -0.70312,0.83984 -0.26043,0.22135 -0.57293,0.33203 -0.9375,0.33203 -0.48178,0 -0.8073,-0.17578 -0.97656,-0.52734 -0.16928,-0.35156 -0.26043,-0.76823 -0.27344,-1.25 -1e-5,-0.49479 0.039,-0.99609 0.11719,-1.50391 0.0911,-0.50781 0.15624,-0.91145 0.19531,-1.21094 -0.96355,0.15626 -1.91407,0.29298 -2.85156,0.41016 -0.0911,0.29948 -0.22136,0.67058 -0.39063,1.11328 -0.16927,0.44271 -0.38412,0.8724 -0.64453,1.28906 -0.26042,0.40365 -0.5599,0.75521 -0.89844,1.05469 -0.33854,0.29948 -0.70964,0.44922 -1.11328,0.44922 -0.3125,0 -0.53385,-0.11068 -0.66406,-0.33203 -0.13021,-0.23437 -0.20834,-0.50781 -0.23438,-0.82031 -0.026,-0.3125 -0.0195,-0.63151 0.0195,-0.95703 0.0521,-0.33854 0.0977,-0.61849 0.13672,-0.83985 0.15625,-0.74218 0.36459,-1.47135 0.625,-2.1875 0.26042,-0.72916 0.54037,-1.45181 0.83985,-2.16797 0.15624,-0.37759 0.34505,-0.8203 0.5664,-1.32812 0.23438,-0.50781 0.5013,-1.02864 0.80078,-1.5625 0.29948,-0.54687 0.625,-1.08072 0.97657,-1.60156 0.36458,-0.53385 0.74869,-1.00911 1.15234,-1.42579 0.41666,-0.41665 0.85937,-0.75519 1.32813,-1.01562 0.46874,-0.2604 0.95702,-0.39061 1.46484,-0.39063 0.49478,2e-5 0.89843,0.1107 1.21094,0.33204 0.32551,0.22136 0.58592,0.51433 0.78125,0.8789 0.20832,0.3646 0.35806,0.78126 0.44922,1.25 0.0911,0.45574 0.14972,0.92449 0.17578,1.40625 0.026,0.46876 0.0325,0.931 0.0195,1.38672 -1e-5,0.45574 -1e-5,0.85938 0,1.21094 -1e-5,0.84636 -0.0326,1.70573 -0.0977,2.57812 -0.0521,0.85938 -0.16277,1.72527 -0.33203,2.59766 m -2.83203,-4.74609 c 0.0391,-0.15625 0.0846,-0.41015 0.13672,-0.76172 0.0521,-0.36458 0.0781,-0.72265 0.0781,-1.07422 0.013,-0.36458 -0.0261,-0.68359 -0.11718,-0.95703 -0.0781,-0.28645 -0.23439,-0.42968 -0.46875,-0.42969 -0.13022,1e-5 -0.27345,0.0912 -0.42969,0.27344 -0.14324,0.16928 -0.28647,0.39063 -0.42969,0.66406 -0.14324,0.26043 -0.28646,0.55339 -0.42969,0.87891 -0.13021,0.32553 -0.25391,0.63803 -0.37109,0.9375 -0.11719,0.29948 -0.21485,0.57292 -0.29297,0.82031 -0.0651,0.23438 -0.11719,0.40365 -0.15625,0.50781 0.79427,-0.0651 1.58202,-0.16275 2.36328,-0.29297 l 0.11719,-0.5664"
         style="font-size:20px;font-style:italic;font-weight:bold;line-height:112.99999952%;letter-spacing:1.47000003px;font-family:Chewy;-inkscape-font-specification:Chewy Bold Italic"
         id="path3049" />
      <path
         d="m 753.37219,603.17678 c -0.11719,0.57292 -0.306,1.20443 -0.5664,1.89453 -0.26043,0.67709 -0.59897,1.3086 -1.01563,1.89453 -0.40365,0.58594 -0.88542,1.07422 -1.44531,1.46485 -0.54688,0.39062 -1.17839,0.58594 -1.89453,0.58594 -0.1823,0 -0.3711,-0.013 -0.56641,-0.0391 -0.18229,-0.026 -0.35808,-0.0716 -0.52734,-0.13672 -0.15626,-0.0651 -0.29949,-0.14973 -0.42969,-0.2539 -0.11719,-0.11719 -0.19532,-0.26693 -0.23437,-0.44922 l -0.74219,2.8125 c -0.0781,0.29948 -0.16277,0.65755 -0.25391,1.07422 -0.0781,0.41666 -0.20833,0.8138 -0.39062,1.1914 -0.16928,0.3776 -0.39714,0.69661 -0.6836,0.95704 -0.27344,0.27343 -0.625,0.41015 -1.05468,0.41015 -0.2474,0 -0.42969,-0.13021 -0.54688,-0.39062 -0.11719,-0.2474 -0.1888,-0.56641 -0.21484,-0.95703 -0.013,-0.39063 0,-0.82683 0.0391,-1.3086 0.0391,-0.48177 0.0977,-0.94401 0.17578,-1.38672 0.0781,-0.44271 0.14974,-0.84635 0.21484,-1.21093 0.0781,-0.36459 0.13672,-0.63151 0.17579,-0.80079 0.16927,-0.87239 0.33203,-1.73827 0.48828,-2.59765 0.16927,-0.87239 0.33854,-1.74479 0.50781,-2.61719 0.0391,-0.15624 0.0911,-0.39713 0.15625,-0.72266 0.0651,-0.33853 0.14974,-0.70311 0.25391,-1.09375 0.10416,-0.39061 0.22786,-0.79426 0.37109,-1.21093 0.14323,-0.41666 0.30599,-0.79426 0.48828,-1.13282 0.18229,-0.35155 0.38411,-0.6315 0.60547,-0.83984 0.23437,-0.22134 0.48177,-0.33202 0.74219,-0.33203 0.16926,1e-5 0.31249,0.0521 0.42968,0.15625 0.11719,0.0912 0.20833,0.21485 0.27344,0.37109 0.0651,0.14324 0.11067,0.29949 0.13672,0.46875 0.0391,0.16928 0.0651,0.32553 0.0781,0.46875 0.49478,-0.45572 1.02864,-0.80077 1.60156,-1.03515 0.57291,-0.23437 1.15884,-0.35155 1.75781,-0.35157 0.62499,2e-5 1.10025,0.1758 1.42578,0.52735 0.32551,0.35157 0.54687,0.78777 0.66406,1.30859 0.1302,0.52084 0.18229,1.08074 0.15625,1.67969 -0.026,0.58594 -0.0846,1.1198 -0.17578,1.60156 m -2.77343,-0.15625 c 0.039,-0.1953 0.0586,-0.39062 0.0586,-0.58594 0.013,-0.20832 -0.007,-0.39712 -0.0586,-0.5664 -0.0391,-0.18229 -0.13022,-0.32551 -0.27344,-0.42969 -0.13022,-0.11718 -0.31251,-0.17577 -0.54688,-0.17578 -0.3125,1e-5 -0.66407,0.10417 -1.05468,0.3125 -0.37761,0.19532 -0.67709,0.42318 -0.89844,0.68359 -0.0912,0.10418 -0.16928,0.27345 -0.23438,0.50782 -0.0521,0.23438 -0.0912,0.41016 -0.11718,0.52734 -0.013,0.0912 -0.0326,0.21485 -0.0586,0.37109 -0.026,0.14324 -0.0456,0.29298 -0.0586,0.44922 -0.013,0.15626 -0.0261,0.306 -0.0391,0.44922 -0.013,0.14323 -0.007,0.25391 0.0195,0.33203 0.013,0.11719 0.0716,0.22787 0.17578,0.33203 0.11718,0.0911 0.24739,0.17579 0.39062,0.25391 0.14323,0.0781 0.29297,0.13672 0.44922,0.17578 0.15625,0.0391 0.29296,0.0586 0.41016,0.0586 0.27343,1e-5 0.51431,-0.10416 0.72265,-0.3125 0.20833,-0.20832 0.39062,-0.45572 0.54688,-0.74218 0.15624,-0.28646 0.27994,-0.57943 0.37109,-0.87891 0.0911,-0.31249 0.15625,-0.5664 0.19532,-0.76172"
         style="font-size:20px;font-style:italic;font-weight:bold;line-height:112.99999952%;letter-spacing:1.47000003px;font-family:Chewy;-inkscape-font-specification:Chewy Bold Italic"
         id="path3051" />
      <path
         d="m 758.475,609.5635 c -0.66406,0 -1.21094,-0.17578 -1.64062,-0.52734 -0.41667,-0.35157 -0.74219,-0.80078 -0.97656,-1.34766 -0.22136,-0.54687 -0.35157,-1.15234 -0.39063,-1.81641 -0.0391,-0.67707 0.007,-1.34114 0.13672,-1.99218 0.14323,-0.6901 0.37109,-1.39974 0.68359,-2.12891 0.32552,-0.74218 0.72266,-1.41275 1.19141,-2.01172 0.46875,-0.61197 1.01562,-1.10676 1.64062,-1.48437 0.625,-0.39062 1.3151,-0.58593 2.07032,-0.58594 0.72916,1e-5 1.30858,0.20183 1.73828,0.60547 0.4427,0.39063 0.76171,0.88542 0.95703,1.48437 0.1953,0.58595 0.28645,1.23048 0.27344,1.9336 -0.013,0.70313 -0.10418,1.36719 -0.27344,1.99218 -0.16928,0.69011 -0.41668,1.38673 -0.74219,2.08985 -0.31251,0.70313 -0.69662,1.33464 -1.15234,1.89453 -0.44272,0.5599 -0.96355,1.01562 -1.5625,1.36719 -0.58594,0.35156 -1.23699,0.52734 -1.95313,0.52734 m 1.97266,-8.82812 c -0.19532,0 -0.39063,0.10417 -0.58594,0.3125 -0.19532,0.20834 -0.3711,0.46224 -0.52734,0.76171 -0.15626,0.29949 -0.29298,0.6185 -0.41016,0.95704 -0.11719,0.32552 -0.20183,0.61198 -0.2539,0.85937 -0.0651,0.31251 -0.10418,0.65105 -0.11719,1.01563 -0.013,0.36458 -10e-6,0.70312 0.0391,1.01562 0.0521,0.29948 0.1302,0.55339 0.23438,0.76172 0.10416,0.19531 0.2539,0.29297 0.44921,0.29297 0.20833,0 0.40364,-0.0977 0.58594,-0.29297 0.19531,-0.19531 0.37109,-0.44271 0.52735,-0.74219 0.15624,-0.29947 0.28645,-0.62499 0.39062,-0.97656 0.11718,-0.36458 0.20182,-0.70312 0.25391,-1.01563 0.0651,-0.28645 0.10416,-0.59895 0.11718,-0.9375 0.013,-0.35155 0,-0.67707 -0.0391,-0.97656 -0.026,-0.29947 -0.0977,-0.54687 -0.21484,-0.74219 -0.10417,-0.1953 -0.25391,-0.29296 -0.44922,-0.29296"
         style="font-size:20px;font-style:italic;font-weight:bold;line-height:112.99999952%;letter-spacing:1.47000003px;font-family:Chewy;-inkscape-font-specification:Chewy Bold Italic"
         id="path3053" />
      <path
         d="m 771.2536,595.36428 c -0.0391,0.18231 -0.12371,0.34507 -0.25391,0.48828 -0.13021,0.14325 -0.28646,0.27345 -0.46875,0.39063 -0.16927,0.10418 -0.35157,0.18881 -0.54687,0.2539 -0.19532,0.0521 -0.3711,0.0781 -0.52735,0.0781 -0.26042,1e-5 -0.47526,-0.0651 -0.64453,-0.19531 -0.16927,-0.1302 -0.22787,-0.33202 -0.17578,-0.60547 0.0391,-0.1953 0.12369,-0.36457 0.25391,-0.50781 0.1302,-0.15624 0.27343,-0.27994 0.42968,-0.3711 0.16927,-0.10415 0.35156,-0.18228 0.54688,-0.23437 0.19531,-0.0521 0.3776,-0.0781 0.54687,-0.0781 0.24739,2e-5 0.46224,0.0586 0.64454,0.17578 0.18228,0.11721 0.24738,0.31903 0.19531,0.60547 m -1.17188,6.64063 c -0.0391,0.1823 -0.0781,0.37761 -0.11718,0.58593 -0.0391,0.19532 -0.0846,0.38413 -0.13672,0.56641 -0.0651,0.22136 -0.13673,0.52084 -0.21485,0.89844 -0.0651,0.36459 -0.15625,0.76172 -0.27343,1.1914 -0.10418,0.4297 -0.23438,0.86589 -0.39063,1.3086 -0.14323,0.44271 -0.31901,0.84635 -0.52734,1.21094 -0.19532,0.36458 -0.42318,0.66406 -0.6836,0.89843 -0.26042,0.22136 -0.55338,0.33855 -0.8789,0.35157 -0.2474,0.013 -0.4362,-0.0846 -0.56641,-0.29297 -0.13021,-0.20834 -0.22135,-0.47526 -0.27344,-0.80078 -0.0391,-0.33854 -0.0456,-0.70964 -0.0195,-1.11329 0.0391,-0.41666 0.0846,-0.81379 0.13672,-1.1914 0.0521,-0.39062 0.11068,-0.7487 0.17578,-1.07422 0.0651,-0.32552 0.11068,-0.5664 0.13672,-0.72266 0.0391,-0.20832 0.0977,-0.50129 0.17578,-0.8789 0.0781,-0.39062 0.17578,-0.80729 0.29297,-1.25 0.11719,-0.4427 0.2539,-0.89192 0.41016,-1.34766 0.16927,-0.45572 0.35807,-0.87239 0.5664,-1.25 0.20833,-0.37759 0.44271,-0.68358 0.70313,-0.91797 0.27343,-0.23436 0.57942,-0.35155 0.91797,-0.35156 0.35155,1e-5 0.58593,0.17579 0.70312,0.52734 0.11718,0.35158 0.16927,0.76173 0.15625,1.23047 0,0.46876 -0.0391,0.93751 -0.11719,1.40625 -0.0781,0.45574 -0.13672,0.79428 -0.17578,1.01563"
         style="font-size:20px;font-style:italic;font-weight:bold;line-height:112.99999952%;letter-spacing:1.47000003px;font-family:Chewy;-inkscape-font-specification:Chewy Bold Italic"
         id="path3055" />
      <path
         d="m 775.12594,609.5635 c -0.66406,0 -1.21094,-0.17578 -1.64062,-0.52734 -0.41667,-0.35157 -0.74219,-0.80078 -0.97656,-1.34766 -0.22136,-0.54687 -0.35157,-1.15234 -0.39063,-1.81641 -0.0391,-0.67707 0.007,-1.34114 0.13672,-1.99218 0.14323,-0.6901 0.37109,-1.39974 0.68359,-2.12891 0.32552,-0.74218 0.72266,-1.41275 1.19141,-2.01172 0.46875,-0.61197 1.01562,-1.10676 1.64062,-1.48437 0.625,-0.39062 1.3151,-0.58593 2.07032,-0.58594 0.72916,1e-5 1.30858,0.20183 1.73828,0.60547 0.4427,0.39063 0.76171,0.88542 0.95703,1.48437 0.1953,0.58595 0.28645,1.23048 0.27344,1.9336 -0.013,0.70313 -0.10418,1.36719 -0.27344,1.99218 -0.16928,0.69011 -0.41668,1.38673 -0.74219,2.08985 -0.31251,0.70313 -0.69662,1.33464 -1.15234,1.89453 -0.44272,0.5599 -0.96355,1.01562 -1.5625,1.36719 -0.58594,0.35156 -1.23699,0.52734 -1.95313,0.52734 m 1.97266,-8.82812 c -0.19532,0 -0.39063,0.10417 -0.58594,0.3125 -0.19532,0.20834 -0.3711,0.46224 -0.52734,0.76171 -0.15626,0.29949 -0.29298,0.6185 -0.41016,0.95704 -0.11719,0.32552 -0.20183,0.61198 -0.2539,0.85937 -0.0651,0.31251 -0.10418,0.65105 -0.11719,1.01563 -0.013,0.36458 -10e-6,0.70312 0.0391,1.01562 0.0521,0.29948 0.1302,0.55339 0.23438,0.76172 0.10416,0.19531 0.2539,0.29297 0.44921,0.29297 0.20833,0 0.40364,-0.0977 0.58594,-0.29297 0.19531,-0.19531 0.37109,-0.44271 0.52735,-0.74219 0.15624,-0.29947 0.28645,-0.62499 0.39062,-0.97656 0.11718,-0.36458 0.20182,-0.70312 0.25391,-1.01563 0.0651,-0.28645 0.10416,-0.59895 0.11718,-0.9375 0.013,-0.35155 0,-0.67707 -0.0391,-0.97656 -0.026,-0.29947 -0.0977,-0.54687 -0.21484,-0.74219 -0.10417,-0.1953 -0.25391,-0.29296 -0.44922,-0.29296"
         style="font-size:20px;font-style:italic;font-weight:bold;line-height:112.99999952%;letter-spacing:1.47000003px;font-family:Chewy;-inkscape-font-specification:Chewy Bold Italic"
         id="path3057" />
      <path
         d="m 787.24048,600.8135 c -0.0391,0.20834 -0.11069,0.4948 -0.21485,0.85938 -0.0911,0.35157 -0.20834,0.73568 -0.35156,1.15234 -0.13021,0.40365 -0.28646,0.82032 -0.46875,1.25 -0.1823,0.41667 -0.37761,0.80079 -0.58594,1.15234 -0.19531,0.33855 -0.40365,0.6185 -0.625,0.83985 -0.22136,0.20833 -0.44922,0.3125 -0.68359,0.3125 -0.28646,0 -0.50782,-0.13672 -0.66406,-0.41016 -0.14324,-0.28645 -0.24089,-0.64453 -0.29297,-1.07422 -0.0391,-0.4427 -0.0456,-0.93098 -0.0195,-1.46484 0.026,-0.53385 0.0716,-1.05468 0.13671,-1.5625 0.0651,-0.52083 0.13672,-0.99609 0.21485,-1.42578 0.0781,-0.4427 0.14322,-0.78124 0.19531,-1.01563 0.0521,-0.23436 0.11068,-0.52733 0.17578,-0.8789 0.0781,-0.36458 0.16927,-0.74869 0.27344,-1.15235 0.11718,-0.40363 0.24739,-0.80077 0.39062,-1.1914 0.15625,-0.40364 0.33854,-0.76822 0.54688,-1.09375 0.20833,-0.32551 0.44921,-0.58593 0.72266,-0.78125 0.27343,-0.20832 0.58593,-0.31249 0.9375,-0.3125 0.31249,1e-5 0.54035,0.13673 0.68359,0.41015 0.15624,0.26043 0.2539,0.60548 0.29297,1.03516 0.039,0.41668 0.0325,0.88543 -0.0195,1.40625 -0.0391,0.52084 -0.0977,1.03517 -0.17578,1.54297 -0.0781,0.4948 -0.16277,0.95704 -0.25391,1.38672 -0.0912,0.42969 -0.16277,0.76823 -0.21484,1.01562 m -1.85547,7.42188 c -0.0521,0.22135 -0.14975,0.41666 -0.29297,0.58593 -0.13021,0.15625 -0.29297,0.28646 -0.48828,0.39063 -0.1823,0.11719 -0.37761,0.20182 -0.58594,0.2539 -0.20834,0.0521 -0.41016,0.0781 -0.60547,0.0781 -0.28646,0 -0.54688,-0.0781 -0.78125,-0.23438 -0.22135,-0.14322 -0.29948,-0.3776 -0.23437,-0.70312 0.0391,-0.19531 0.1302,-0.37109 0.27343,-0.52734 0.14323,-0.16927 0.3125,-0.3125 0.50782,-0.42969 0.19531,-0.11719 0.39713,-0.20833 0.60546,-0.27344 0.22136,-0.0651 0.42318,-0.0976 0.60547,-0.0977 0.29948,1e-5 0.55338,0.0781 0.76172,0.23438 0.22135,0.14323 0.29948,0.38412 0.23438,0.72266"
         style="font-size:20px;font-style:italic;font-weight:bold;line-height:112.99999952%;letter-spacing:1.47000003px;font-family:Chewy;-inkscape-font-specification:Chewy Bold Italic"
         id="path3059" />
    </g>
    <text
       xml:space="preserve"
       style="font-size:14px;font-style:normal;font-variant:normal;font-weight:normal;font-stretch:normal;line-height:125%;letter-spacing:0px;word-spacing:0px;fill:#000000;fill-opacity:1;stroke:none;font-family:DejaVu Sans;-inkscape-font-specification:DejaVu Sans"
       x="78.39196"
       y="852.46271"
       id="text3064"
       sodipodi:linespacing="125%"><tspan
         sodipodi:role="line"
         id="tspan3066"
         x="78.39196"
         y="852.46271">Fonte: Chewy</tspan></text>
    <text
       xml:space="preserve"
       style="font-size:14px;font-style:normal;font-variant:normal;font-weight:normal;font-stretch:normal;text-align:center;line-height:112.99999952%;letter-spacing:0px;word-spacing:0px;text-anchor:middle;fill:#000000;fill-opacity:1;stroke:none;font-family:DejaVu Sans;-inkscape-font-specification:DejaVu Sans"
       x="790.06573"
       y="442.90567"
       id="text3013-5"
       sodipodi:linespacing="113%"
       transform="matrix(0.70710678,0.70710678,-0.70710678,0.70710678,0,0)"><tspan
         sodipodi:role="line"
         id="tspan3015-9"
         x="790.80072"
         y="442.90567"
         style="font-size:20px;font-style:italic;font-variant:normal;font-weight:bold;font-stretch:normal;line-height:112.99999952%;letter-spacing:1.47000003px;font-family:Chewy;-inkscape-font-specification:Chewy Bold Italic">Voto Aberto:</tspan><tspan
         sodipodi:role="line"
         x="790.80072"
         y="465.50565"
         id="tspan3017-2"
         style="font-size:20px;font-style:italic;font-variant:normal;font-weight:bold;font-stretch:normal;line-height:112.99999952%;letter-spacing:1.47000003px;font-family:Chewy;-inkscape-font-specification:Chewy Bold Italic">Eu Apoio!</tspan></text>
  </g>
  <g
     inkscape:groupmode="layer"
     id="layer3"
     inkscape:label="Texto_vetorizado" />
</svg>
