<?xml version="1.0" encoding="UTF-8" standalone="no"?>
<!-- Created with Inkscape (http://www.inkscape.org/) -->

<svg
   xmlns:dc="http://purl.org/dc/elements/1.1/"
   xmlns:cc="http://creativecommons.org/ns#"
   xmlns:rdf="http://www.w3.org/1999/02/22-rdf-syntax-ns#"
   xmlns:svg="http://www.w3.org/2000/svg"
   xmlns="http://www.w3.org/2000/svg"
   xmlns:sodipodi="http://sodipodi.sourceforge.net/DTD/sodipodi-0.dtd"
   xmlns:inkscape="http://www.inkscape.org/namespaces/inkscape"
   width="186"
   height="130.2"
   id="svg2"
   version="1.1"
   inkscape:version="0.48.3.1 r9886"
   sodipodi:docname="votoAberto.svg"
   inkscape:export-filename="/home/diraol/devel/polignu/camaraws/radar_parlamentar/static/assets/votoaberto/voto_aberto.png"
   inkscape:export-xdpi="145.16"
   inkscape:export-ydpi="145.16">
  <defs
     id="defs4" />
  <sodipodi:namedview
     id="base"
     pagecolor="#ffffff"
     bordercolor="#666666"
     borderopacity="1.0"
     inkscape:pageopacity="0.0"
     inkscape:pageshadow="2"
     inkscape:zoom="1.6583334"
     inkscape:cx="117.25339"
     inkscape:cy="10.807587"
     inkscape:document-units="px"
     inkscape:current-layer="g3895"
     showgrid="false"
     inkscape:snap-bbox="true"
     inkscape:bbox-paths="true"
     inkscape:bbox-nodes="true"
     inkscape:snap-bbox-edge-midpoints="true"
     inkscape:snap-bbox-midpoints="true"
     showguides="true"
     inkscape:guide-bbox="true"
     inkscape:window-width="1280"
     inkscape:window-height="776"
     inkscape:window-x="0"
     inkscape:window-y="24"
     inkscape:window-maximized="1"
     fit-margin-top="0"
     fit-margin-left="0"
     fit-margin-right="0"
     fit-margin-bottom="0" />
  <metadata
     id="metadata7">
    <rdf:RDF>
      <cc:Work
         rdf:about="">
        <dc:format>image/svg+xml</dc:format>
        <dc:type
           rdf:resource="http://purl.org/dc/dcmitype/StillImage" />
        <dc:title></dc:title>
      </cc:Work>
    </rdf:RDF>
  </metadata>
  <g
     inkscape:groupmode="layer"
     id="layer2"
     inkscape:label="fundo"
     transform="translate(3,-8.48915)" />
  <g
     inkscape:label="Texto"
     inkscape:groupmode="layer"
     id="layer1"
     transform="translate(3,-880.85133)">
    <g
       transform="matrix(1.586496,0,0,1.586496,-1092.8069,-2.7455187)"
       style="font-size:14px;font-style:normal;font-variant:normal;font-weight:normal;font-stretch:normal;text-align:center;line-height:112.99999952%;letter-spacing:0px;word-spacing:0px;text-anchor:middle;fill:#000000;fill-opacity:1;stroke:none;font-family:DejaVu Sans;-inkscape-font-specification:DejaVu Sans"
       id="text3013" />
    <text
       xml:space="preserve"
       style="font-size:14px;font-style:normal;font-variant:normal;font-weight:normal;font-stretch:normal;line-height:125%;letter-spacing:0px;word-spacing:0px;fill:#000000;fill-opacity:1;stroke:none;font-family:DejaVu Sans;-inkscape-font-specification:DejaVu Sans"
       x="78.39196"
       y="852.46271"
       id="text3064"
       sodipodi:linespacing="125%"><tspan
         sodipodi:role="line"
         id="tspan3066"
         x="78.39196"
         y="852.46271">Fonte: Chewy</tspan></text>
    <g
       style="opacity:0.31333337;fill-rule:evenodd"
       id="g3119"
       transform="matrix(0.00186,0,0,0.00186,-3,880.85133)">
      <rect
         id="rect3101"
         height="70000"
         width="100000"
         y="0"
         x="0"
         style="fill:#00923f" />
      <path
         id="path3103"
         d="M 50000,8500 8500,35000 50000,61500 91500,35000 50000,8500 z"
         inkscape:connector-curvature="0"
         style="fill:#f8c300" />
      <circle
         id="circle3105"
         r="17464"
         cy="35000"
         cx="49963"
         sodipodi:cx="49963"
         sodipodi:cy="35000"
         sodipodi:rx="17464"
         sodipodi:ry="17464"
         style="fill:#28166f"
         d="m 67427,35000 c 0,9645.101 -7818.899,17464 -17464,17464 -9645.101,0 -17464,-7818.899 -17464,-17464 0,-9645.101 7818.899,-17464 17464,-17464 9645.101,0 17464,7818.899 17464,17464 z" />
      <path
         id="path3107"
         d="m 51733,38767 211,533 571,36 -440,366 141,555 -483,-307 -484,307 142,-555 -441,-366 571,-36 212,-533 z m 13056,1864 180,454 487,31 -376,312 121,472 -412,-261 -413,261 121,-472 -375,-312 487,-31 180,-454 z m -1869,1447 212,532 571,37 -441,365 142,555 -484,-306 -484,306 142,-555 -441,-365 572,-37 211,-532 z m -693,-1873 251,631 677,44 -522,433 168,657 -574,-363 -573,363 168,-657 -522,-433 677,-44 250,-631 z m -134,3262 211,532 572,36 -441,366 142,555 -484,-307 -484,307 142,-555 -441,-366 571,-36 212,-532 z m -1635,860 180,453 487,32 -375,311 121,473 -413,-261 -412,261 121,-473 -376,-311 487,-32 180,-453 z m -1681,1563 212,532 571,37 -441,365 142,555 -484,-307 -483,307 141,-555 -440,-365 571,-37 211,-532 z m -20,1956 180,454 487,31 -375,312 121,473 -413,-261 -412,261 121,-473 -376,-312 487,-31 180,-454 z m -27,-3536 180,453 487,31 -376,312 121,473 -412,-261 -413,261 121,-473 -376,-312 488,-31 180,-453 z m -2060,405 181,454 487,31 -376,312 121,473 -413,-261 -412,261 121,-473 -376,-312 487,-31 180,-454 z m -1321,-16761 251,631 677,43 -522,433 168,657 -574,-363 -573,363 168,-657 -522,-433 677,-43 250,-631 z m -276,18360 211,533 572,36 -441,366 142,554 -484,-306 -484,306 142,-554 -441,-366 571,-36 212,-533 z m -972,-13052 181,453 487,32 -376,311 121,473 -413,-261 -412,261 121,-473 -376,-311 487,-32 180,-453 z m -463,11013 180,454 487,31 -375,311 121,473 -413,-261 -412,261 121,-473 -376,-311 487,-31 180,-454 z m -3506,-7005 211,532 572,37 -441,365 142,555 -484,-306 -484,306 142,-555 -441,-365 571,-37 212,-532 z m -102,4954 250,631 678,43 -523,433 168,658 -573,-363 -573,363 168,-658 -523,-433 678,-43 250,-631 z m 57,6317 96,242 260,17 -200,166 64,253 -220,-140 -220,140 64,-253 -200,-166 260,-17 96,-242 z m -1103,-8349 135,340 364,23 -281,233 91,354 -309,-196 -308,196 90,-354 -281,-233 365,-23 134,-340 z m -1276,-1103 180,454 487,31 -376,311 121,473 -412,-261 -413,261 121,-473 -376,-311 488,-31 180,-454 z m -4536,-4170 211,533 571,36 -440,366 141,555 -483,-307 -484,307 142,-555 -441,-366 571,-36 212,-533 z m -511,8821 250,631 678,44 -523,433 168,657 -573,-363 -574,363 169,-657 -523,-433 677,-44 251,-631 z m -1918,-3482 212,532 571,37 -441,365 142,555 -484,-307 -483,307 141,-555 -440,-365 571,-37 211,-532 z m -632,1962 180,454 487,31 -376,311 121,473 -412,-261 -413,261 121,-473 -376,-311 487,-31 181,-454 z m -1303,-4463 135,339 364,24 -281,233 91,353 -309,-195 -308,195 90,-353 -281,-233 365,-24 134,-339 z m -1603,704 250,631 678,43 -523,433 168,658 -573,-363 -573,363 168,-658 -523,-433 678,-43 250,-631 z m -1439,-7266 251,631 677,43 -522,433 168,658 -574,-363 -573,363 168,-658 -522,-433 677,-43 250,-631 z m -394,8926 212,533 571,36 -441,366 142,554 -484,-306 -484,306 142,-554 -441,-366 572,-36 211,-533 z"
         inkscape:connector-curvature="0"
         style="fill:#ffffff" />
      <path
         id="path3109"
         d="m 39537,29605 c 10388,0 19911,3821 27238,10127 242,-850 421,-1726 532,-2622 -7597,-6162 -17265,-9862 -27770,-9862 -1821,0 -3617,114 -5382,330 -377,805 -695,1642 -948,2507 2065,-316 4179,-480 6330,-480 z"
         inkscape:connector-curvature="0"
         style="fill:#ffffff" />
      <path
         id="path3111"
         d="m 35044,28698 c 14,171 64,300 148,388 84,88 194,126 331,115 137,-12 241,-68 309,-170 69,-101 95,-237 81,-408 -15,-171 -65,-300 -149,-388 -85,-88 -196,-126 -334,-114 -137,11 -239,68 -307,169 -67,100 -94,236 -79,408 z m -326,28 c -22,-251 30,-456 154,-615 124,-159 302,-248 534,-268 232,-20 423,38 573,173 150,136 236,329 257,579 22,251 -30,456 -155,615 -124,159 -303,249 -534,269 -233,20 -423,-38 -573,-174 -149,-136 -235,-329 -256,-579 z m 2536,-290 377,-13 c 82,-3 141,-21 179,-56 37,-34 54,-87 52,-158 -2,-68 -23,-119 -61,-152 -39,-34 -95,-50 -169,-47 l -392,13 14,413 z m -291,887 -52,-1558 756,-25 c 169,-6 296,26 380,96 85,70 129,180 134,329 3,95 -14,175 -52,240 -37,65 -93,110 -167,136 68,22 118,57 148,105 30,49 49,125 57,229 l 13,184 c 0,1 0,3 0,6 5,93 27,149 66,167 l 1,48 -351,12 c -12,-22 -21,-48 -28,-80 -7,-32 -13,-70 -15,-115 l -10,-164 c -7,-96 -27,-161 -61,-193 -34,-33 -94,-48 -179,-45 l -340,11 21,606 -321,11 z m 2300,-350 257,5 c 149,3 258,-34 326,-111 68,-76 104,-203 107,-377 3,-175 -25,-303 -86,-386 -61,-83 -157,-126 -289,-128 l -296,-6 -19,1003 z m -320,275 30,-1558 610,11 c 240,5 417,73 532,204 115,131 170,328 165,591 -3,142 -27,267 -72,375 -46,108 -111,194 -194,259 -63,48 -134,82 -214,102 -79,20 -190,29 -333,26 l -524,-10 z m 1978,35 84,-1556 1131,61 -15,270 -815,-44 -17,332 744,40 -14,266 -745,-40 -21,400 852,46 -15,288 -1169,-63 z m 1835,109 165,-1550 472,50 182,1213 430,-1147 473,50 -165,1550 -299,-32 133,-1250 -448,1217 -326,-35 -185,-1284 -134,1250 -298,-32 z m 4130,532 326,-1524 1107,237 -57,265 -797,-171 -70,325 730,156 -56,261 -730,-157 -84,392 835,179 -60,282 -1144,-245 z m 4125,96 300,81 c 81,21 144,20 190,-4 46,-25 80,-75 100,-152 20,-71 16,-130 -10,-177 -26,-46 -75,-79 -147,-98 l -315,-85 -118,435 z m -75,272 -144,535 -310,-83 405,-1505 670,180 c 158,43 266,117 326,220 59,104 67,236 24,395 -41,155 -113,264 -216,326 -102,63 -228,74 -375,35 l -380,-103 z m 1874,245 360,111 c 78,24 141,26 187,5 47,-20 80,-65 101,-133 20,-64 17,-119 -8,-163 -25,-45 -74,-78 -144,-100 l -375,-115 -121,395 z m -564,744 457,-1490 723,222 c 162,50 272,122 329,215 57,94 63,212 19,355 -28,91 -70,161 -127,210 -57,49 -124,74 -202,74 57,43 93,92 106,148 12,56 5,134 -21,235 l -48,178 c 0,1 -1,3 -2,6 -25,89 -23,149 8,179 l -14,46 -336,-104 c -4,-24 -5,-52 -1,-85 4,-32 11,-70 23,-113 l 44,-158 c 25,-93 27,-161 6,-202 -22,-42 -73,-76 -155,-101 l -325,-100 -178,579 -306,-94 z m 2373,-5 c -59,161 -68,299 -29,415 38,115 122,196 251,243 130,47 247,40 352,-23 105,-63 187,-175 246,-336 58,-161 68,-299 29,-414 -40,-116 -125,-198 -255,-245 -128,-47 -245,-39 -349,23 -104,63 -186,175 -245,337 z m -307,-113 c 87,-236 220,-400 399,-492 180,-91 379,-97 598,-17 218,80 367,213 446,399 79,187 75,398 -12,634 -86,236 -219,400 -400,491 -180,92 -380,98 -598,18 -219,-80 -367,-213 -445,-399 -78,-186 -74,-398 12,-634 z m 2884,1831 c -84,49 -167,76 -250,81 -82,5 -169,-12 -260,-51 -200,-86 -333,-224 -398,-416 -65,-193 -49,-402 47,-628 98,-229 238,-385 420,-469 182,-85 377,-83 583,5 180,77 308,182 385,317 77,134 94,281 51,441 l -301,-128 c 14,-82 1,-155 -39,-218 -39,-63 -104,-113 -194,-152 -120,-51 -233,-47 -339,12 -106,58 -192,165 -258,320 -67,156 -83,293 -49,412 34,119 113,205 237,258 94,39 184,45 270,17 87,-29 158,-88 214,-177 l -325,-139 104,-245 594,253 -331,776 -197,-84 36,-185 z m 1482,-41 338,166 c 74,36 135,47 184,34 49,-13 89,-51 121,-116 29,-60 35,-114 17,-162 -18,-48 -61,-88 -127,-121 l -352,-172 -181,371 z m -674,646 685,-1399 679,332 c 153,75 250,163 291,264 42,101 30,219 -36,353 -42,86 -95,148 -158,188 -64,39 -135,53 -212,41 50,52 77,105 82,163 3,57 -16,133 -58,228 l -75,169 c 0,1 -1,3 -3,5 -39,84 -46,144 -20,179 l -21,42 -316,-154 c 0,-25 4,-53 13,-84 9,-32 22,-68 41,-108 l 68,-149 c 39,-88 51,-155 37,-200 -15,-45 -61,-86 -137,-123 l -305,-150 -267,544 -288,-141 z m 1742,895 758,-1362 989,550 -132,237 -713,-397 -161,291 652,362 -130,233 -652,-362 -195,350 747,415 -140,252 -1023,-569 z m 1759,483 271,163 c -34,79 -37,152 -9,217 28,65 89,126 183,182 80,49 148,71 206,66 58,-3 103,-33 137,-89 48,-81 -28,-218 -228,-411 -3,-3 -5,-5 -7,-7 -5,-5 -13,-13 -24,-23 -109,-103 -179,-187 -211,-253 -30,-58 -41,-121 -35,-187 6,-66 30,-133 72,-203 78,-130 182,-202 312,-219 130,-15 279,27 445,127 156,94 256,205 299,331 44,127 27,259 -48,396 l -264,-159 c 34,-68 39,-132 14,-192 -24,-61 -78,-117 -160,-166 -72,-44 -136,-63 -192,-59 -56,5 -99,33 -131,85 -43,71 2,169 132,296 35,34 63,61 82,80 83,84 140,145 173,183 32,39 58,75 78,111 36,63 53,127 50,193 -3,67 -25,135 -67,204 -84,139 -195,218 -335,238 -140,20 -295,-21 -465,-124 -168,-101 -277,-219 -325,-355 -48,-135 -33,-277 47,-425 z m 1642,1027 262,178 c -38,77 -44,149 -19,216 24,66 82,130 173,191 77,52 144,78 202,77 58,-1 105,-28 141,-82 53,-79 -16,-219 -206,-423 -2,-2 -5,-5 -6,-7 -6,-5 -13,-13 -23,-25 -103,-108 -169,-195 -198,-263 -26,-59 -34,-123 -25,-188 10,-66 37,-132 83,-199 85,-126 193,-193 323,-202 131,-9 277,41 438,150 151,102 244,217 281,346 37,129 14,259 -69,392 l -256,-172 c 38,-66 46,-130 25,-192 -21,-62 -72,-120 -151,-174 -70,-47 -133,-70 -189,-68 -56,2 -101,28 -135,78 -46,68 -7,169 116,302 34,36 60,65 78,85 78,87 132,152 163,191 30,40 54,79 72,115 33,65 46,130 40,196 -6,66 -32,133 -78,200 -90,134 -206,208 -347,220 -141,13 -293,-36 -458,-148 -162,-110 -264,-234 -305,-371 -42,-138 -19,-279 68,-423 z m 1981,1051 c -104,137 -154,267 -150,388 3,122 60,224 169,307 110,83 225,110 344,81 118,-29 229,-113 333,-250 103,-136 153,-266 149,-388 -5,-122 -62,-225 -172,-308 -109,-83 -223,-109 -341,-79 -118,29 -229,112 -332,249 z m -261,-197 c 152,-200 327,-318 525,-354 199,-35 391,18 577,158 186,141 289,311 310,513 20,201 -45,402 -196,602 -152,201 -328,319 -527,353 -199,35 -392,-17 -577,-157 -186,-141 -289,-312 -309,-513 -20,-200 45,-401 197,-602 z"
         inkscape:connector-curvature="0"
         style="fill:#00923f" />
    </g>
    <g
       id="g3895"
       transform="translate(0.27587891,6.3169509)">
      <text
         sodipodi:linespacing="113%"
         id="text3013-5"
         y="929.24359"
         x="87.507271"
         style="font-size:22.19613457px;font-style:normal;font-variant:normal;font-weight:normal;font-stretch:normal;text-align:center;line-height:112.99999952%;letter-spacing:0px;word-spacing:0px;text-anchor:middle;fill:#000000;fill-opacity:1;stroke:none;font-family:DejaVu Sans;-inkscape-font-specification:DejaVu Sans"
         xml:space="preserve"><tspan
           style="font-size:31.70876503px;font-style:italic;font-variant:normal;font-weight:bold;font-stretch:normal;line-height:112.99999952%;letter-spacing:2.33059406px;font-family:Chewy;-inkscape-font-specification:Chewy Bold Italic"
           y="929.24359"
           x="88.672569"
           id="tspan3015-9"
           sodipodi:role="line">Voto Aberto:</tspan><tspan
           style="font-size:31.70876503px;font-style:italic;font-variant:normal;font-weight:bold;font-stretch:normal;line-height:112.99999952%;letter-spacing:2.33059406px;font-family:Chewy;-inkscape-font-specification:Chewy Bold Italic"
           id="tspan3017-2"
           y="965.07452"
           x="88.672569"
           sodipodi:role="line">Eu Apoio!</tspan></text>
      <text
         sodipodi:linespacing="125%"
         id="text3037"
         y="990.09277"
         x="88.67189"
         style="font-size:14px;font-style:normal;font-variant:normal;font-weight:normal;font-stretch:normal;text-align:center;line-height:125%;letter-spacing:0px;word-spacing:0px;text-anchor:middle;fill:#000000;fill-opacity:1;stroke:none;font-family:DejaVu Sans;-inkscape-font-specification:DejaVu Sans"
         xml:space="preserve"><tspan
           style="font-size:10px;text-align:center;text-anchor:middle"
           y="990.09277"
           x="88.67189"
           id="tspan3039"
           sodipodi:role="line">http://radarparlamentar.polignu.org/</tspan><tspan
           style="font-size:10px;text-align:center;text-anchor:middle"
           y="1002.5928"
           x="88.67189"
           sodipodi:role="line"
           id="tspan3902">sim-voto-aberto</tspan></text>
    </g>
  </g>
  <g
     inkscape:groupmode="layer"
     id="layer3"
     inkscape:label="Texto_vetorizado"
     transform="translate(3,-8.48915)" />
</svg>
